# Blender 5.0.1
# www.blender.org
o Cube
v -0.080000 0.060000 2.320000
v -0.080000 -0.060000 2.320000
v -1.000000 0.600000 0.320000
v -1.000000 -0.600000 0.320000
v 0.080000 0.060000 2.320000
v 0.080000 -0.060000 2.320000
v 1.000000 0.600000 0.320000
v 1.000000 -0.600000 0.320000
vn -0.0000 0.9654 0.2607
vn -0.0000 -0.0000 -1.0000
vn 0.9085 -0.0000 0.4179
vn -0.0000 -0.9654 0.2607
vn -0.9085 -0.0000 0.4179
vn -0.0000 -0.0000 1.0000
vt 0.625000 0.500000
vt 0.875000 0.500000
vt 0.875000 0.750000
vt 0.625000 0.750000
vt 0.375000 0.750000
vt 0.625000 1.000000
vt 0.375000 1.000000
vt 0.375000 0.000000
vt 0.625000 0.000000
vt 0.625000 0.250000
vt 0.375000 0.250000
vt 0.125000 0.500000
vt 0.375000 0.500000
vt 0.125000 0.750000
s 0
f 1/1/1 5/2/1 7/3/1 3/4/1
f 4/5/2 3/4/2 7/6/2 8/7/2
f 8/8/3 7/9/3 5/10/3 6/11/3
f 6/12/4 2/13/4 4/5/4 8/14/4
f 2/13/5 1/1/5 3/4/5 4/5/5
f 6/11/6 5/10/6 1/1/6 2/13/6
o Cube.001
v 0.900000 0.700000 0.320000
v -0.000000 1.400000 0.320000
v 0.900000 0.700000 0.370000
v -0.000000 1.400000 0.370000
v -0.900000 0.700000 0.320000
v -0.900000 0.700000 0.370000
vn 0.6139 0.7894 -0.0000
vn -0.0000 -0.0000 1.0000
vn -0.6139 0.7894 -0.0000
vn -0.0000 -0.0000 -1.0000
vn -0.0000 -1.0000 -0.0000
vt 0.375000 0.000000
vt 0.625000 0.000000
vt 0.625000 0.250000
vt 0.375000 0.250000
vt 0.625000 0.500000
vt 0.375000 0.500000
vt 0.625000 0.750000
vt 0.375000 0.750000
vt 0.625000 1.000000
vt 0.375000 1.000000
vt 0.125000 0.500000
vt 0.125000 0.750000
s 0
f 9/15/7 10/16/7 12/17/7 11/18/7
f 11/18/8 12/19/8 14/20/8
f 14/20/9 12/19/9 10/21/9 13/22/9
f 13/22/10 10/23/10 9/24/10
f 11/25/11 14/20/11 13/22/11 9/26/11
o Cylinder
v 0.000000 0.100000 1.120000
v -0.000000 0.100000 0.020000
v -0.070711 0.070711 1.120000
v -0.070711 0.070711 0.020000
v -0.100000 0.000000 1.120000
v -0.100000 -0.000000 0.020000
v -0.070711 -0.070711 1.120000
v -0.070711 -0.070711 0.020000
v 0.000000 -0.100000 1.120000
v -0.000000 -0.100000 0.020000
v 0.070711 -0.070711 1.120000
v 0.070710 -0.070711 0.020000
v 0.100000 0.000000 1.120000
v 0.100000 -0.000000 0.020000
v 0.070711 0.070711 1.120000
v 0.070710 0.070711 0.020000
vn -0.3827 0.9239 -0.0000
vn -0.9239 0.3827 -0.0000
vn -0.9239 -0.3827 -0.0000
vn -0.3827 -0.9239 -0.0000
vn 0.3827 -0.9239 -0.0000
vn 0.9239 -0.3827 -0.0000
vn -0.0000 -0.0000 -1.0000
vn 0.9239 0.3827 -0.0000
vn 0.3827 0.9239 -0.0000
vn -0.0000 -0.0000 1.0000
vt 1.000000 0.500000
vt 1.000000 1.000000
vt 0.875000 1.000000
vt 0.875000 0.500000
vt 0.750000 1.000000
vt 0.750000 0.500000
vt 0.625000 1.000000
vt 0.625000 0.500000
vt 0.500000 1.000000
vt 0.500000 0.500000
vt 0.375000 1.000000
vt 0.375000 0.500000
vt 0.250000 1.000000
vt 0.250000 0.500000
vt 0.419706 0.419706
vt 0.250000 0.490000
vt 0.080294 0.419706
vt 0.010000 0.250000
vt 0.080294 0.080294
vt 0.250000 0.010000
vt 0.419706 0.080294
vt 0.490000 0.250000
vt 0.125000 1.000000
vt 0.125000 0.500000
vt 0.000000 1.000000
vt 0.000000 0.500000
vt 0.750000 0.490000
vt 0.919706 0.419706
vt 0.990000 0.250000
vt 0.919706 0.080294
vt 0.750000 0.010000
vt 0.580294 0.080294
vt 0.510000 0.250000
vt 0.580294 0.419706
s 0
f 15/27/12 16/28/12 18/29/12 17/30/12
f 17/30/13 18/29/13 20/31/13 19/32/13
f 19/32/14 20/31/14 22/33/14 21/34/14
f 21/34/15 22/33/15 24/35/15 23/36/15
f 23/36/16 24/35/16 26/37/16 25/38/16
f 25/38/17 26/37/17 28/39/17 27/40/17
f 18/41/18 16/42/18 30/43/18 28/44/18 26/45/18 24/46/18 22/47/18 20/48/18
f 27/40/19 28/39/19 30/49/19 29/50/19
f 29/50/20 30/49/20 16/51/20 15/52/20
f 15/53/21 17/54/21 19/55/21 21/56/21 23/57/21 25/58/21 27/59/21 29/60/21
o Cone
v -0.000000 0.160000 0.020000
v -0.113137 0.113137 0.020000
v -0.160000 0.000000 0.020000
v -0.113137 -0.113137 0.020000
v -0.000000 -0.160000 0.020000
v 0.113137 -0.113137 0.020000
v 0.160000 0.000000 0.020000
v 0.113137 0.113137 0.020000
v -0.000000 -0.000000 -0.300000
vn -0.3474 0.8387 -0.4194
vn -0.8387 0.3474 -0.4194
vn -0.8387 -0.3474 -0.4194
vn -0.3474 -0.8387 -0.4194
vn 0.3474 -0.8387 -0.4194
vn 0.8387 -0.3474 -0.4194
vn -0.0000 -0.0000 1.0000
vn 0.8387 0.3474 -0.4194
vn 0.3474 0.8387 -0.4194
vt 0.250000 0.490000
vt 0.250000 0.250000
vt 0.419706 0.419706
vt 0.490000 0.250000
vt 0.419706 0.080294
vt 0.250000 0.010000
vt 0.080294 0.080294
vt 0.010000 0.250000
vt 0.750000 0.490000
vt 0.919706 0.419706
vt 0.990000 0.250000
vt 0.919706 0.080294
vt 0.750000 0.010000
vt 0.580294 0.080294
vt 0.510000 0.250000
vt 0.580294 0.419706
vt 0.080294 0.419706
s 0
f 31/61/22 39/62/22 32/63/22
f 32/63/23 39/62/23 33/64/23
f 33/64/24 39/62/24 34/65/24
f 34/65/25 39/62/25 35/66/25
f 35/66/26 39/62/26 36/67/26
f 36/67/27 39/62/27 37/68/27
f 31/69/28 32/70/28 33/71/28 34/72/28 35/73/28 36/74/28 37/75/28 38/76/28
f 37/68/29 39/62/29 38/77/29
f 38/77/30 39/62/30 31/61/30
