# Blender 5.0.1
# www.blender.org
o Cube
v 0.080000 0.060000 -1.000000
v 0.080000 -0.060000 -1.000000
v 1.000000 0.600000 1.000000
v 1.000000 -0.600000 1.000000
v -0.080000 0.060000 -1.000000
v -0.080000 -0.060000 -1.000000
v -1.000000 0.600000 1.000000
v -1.000000 -0.600000 1.000000
vn -0.0000 0.9654 -0.2607
vn -0.0000 -0.0000 1.0000
vn -0.9085 -0.0000 -0.4179
vn -0.0000 -0.9654 -0.2607
vn 0.9085 -0.0000 -0.4179
vn -0.0000 -0.0000 -1.0000
vt 0.625000 0.500000
vt 0.875000 0.750000
vt 0.625000 0.750000
vt 0.375000 1.000000
vt 0.375000 0.750000
vt 0.625000 0.000000
vt 0.375000 0.250000
vt 0.375000 0.000000
vt 0.125000 0.500000
vt 0.125000 0.750000
vt 0.375000 0.500000
vt 0.625000 0.250000
vt 0.875000 0.500000
vt 0.625000 1.000000
s 0
f 1/1/1 7/2/1 3/3/1
f 3/3/2 8/4/2 4/5/2
f 7/6/3 6/7/3 8/8/3
f 6/9/4 4/5/4 8/10/4
f 1/1/5 4/5/5 2/11/5
f 5/12/6 2/11/6 6/7/6
f 1/1/1 5/13/1 7/2/1
f 3/3/2 7/14/2 8/4/2
f 7/6/3 5/12/3 6/7/3
f 6/9/4 2/11/4 4/5/4
f 1/1/5 3/3/5 4/5/5
f 5/12/6 1/1/6 2/11/6
o Cube.001
v -0.900000 0.700000 1.000000
v 0.000000 1.400000 1.000000
v -0.900000 0.700000 0.950000
v 0.000000 1.400000 0.950000
v 0.900000 0.700000 1.000000
v 0.900000 0.700000 0.950000
vn -0.6139 0.7894 -0.0000
vn -0.0000 -0.0000 -1.0000
vn 0.6139 0.7894 -0.0000
vn -0.0000 -0.0000 1.0000
vn -0.0000 -1.0000 -0.0000
vt 0.625000 0.000000
vt 0.375000 0.250000
vt 0.375000 0.000000
vt 0.625000 0.500000
vt 0.375000 0.500000
vt 0.375000 0.750000
vt 0.625000 1.000000
vt 0.375000 1.000000
vt 0.125000 0.750000
vt 0.125000 0.500000
vt 0.625000 0.250000
vt 0.625000 0.750000
s 0
f 10/15/7 11/16/7 9/17/7
f 11/16/8 12/18/8 14/19/8
f 12/18/9 13/20/9 14/19/9
f 13/20/10 10/21/10 9/22/10
f 14/19/11 9/23/11 11/24/11
f 10/15/7 12/25/7 11/16/7
f 12/18/9 10/26/9 13/20/9
f 14/19/11 13/20/11 9/23/11
o Cylinder
v 0.000000 0.100000 0.200000
v 0.000000 0.100000 1.300000
v 0.070711 0.070711 0.200000
v 0.070711 0.070711 1.300000
v 0.100000 0.000000 0.200000
v 0.100000 -0.000000 1.300000
v 0.070711 -0.070711 0.200000
v 0.070711 -0.070711 1.300000
v 0.000000 -0.100000 0.200000
v 0.000000 -0.100000 1.300000
v -0.070711 -0.070711 0.200000
v -0.070711 -0.070711 1.300000
v -0.100000 0.000000 0.200000
v -0.100000 -0.000000 1.300000
v -0.070711 0.070711 0.200000
v -0.070711 0.070711 1.300000
vn 0.3827 0.9239 -0.0000
vn 0.9239 0.3827 -0.0000
vn 0.9239 -0.3827 -0.0000
vn 0.3827 -0.9239 -0.0000
vn -0.3827 -0.9239 -0.0000
vn -0.9239 -0.3827 -0.0000
vn -0.0000 -0.0000 1.0000
vn -0.9239 0.3827 -0.0000
vn -0.3827 0.9239 -0.0000
vn -0.0000 -0.0000 -1.0000
vt 1.000000 1.000000
vt 0.875000 0.500000
vt 1.000000 0.500000
vt 0.875000 1.000000
vt 0.750000 0.500000
vt 0.750000 1.000000
vt 0.625000 0.500000
vt 0.625000 1.000000
vt 0.500000 0.500000
vt 0.500000 1.000000
vt 0.375000 0.500000
vt 0.375000 1.000000
vt 0.250000 0.500000
vt 0.010000 0.250000
vt 0.250000 0.010000
vt 0.490000 0.250000
vt 0.250000 1.000000
vt 0.125000 0.500000
vt 0.125000 1.000000
vt 0.000000 0.500000
vt 0.919706 0.080294
vt 0.580294 0.080294
vt 0.580294 0.419706
vt 0.419706 0.419706
vt 0.250000 0.490000
vt 0.080294 0.419706
vt 0.080294 0.080294
vt 0.419706 0.080294
vt 0.000000 1.000000
vt 0.750000 0.490000
vt 0.919706 0.419706
vt 0.990000 0.250000
vt 0.750000 0.010000
vt 0.510000 0.250000
s 0
f 16/27/12 17/28/12 15/29/12
f 18/30/13 19/31/13 17/28/13
f 20/32/14 21/33/14 19/31/14
f 22/34/15 23/35/15 21/33/15
f 24/36/16 25/37/16 23/35/16
f 26/38/17 27/39/17 25/37/17
f 28/40/18 24/41/18 20/42/18
f 28/43/19 29/44/19 27/39/19
f 30/45/20 15/46/20 29/44/20
f 21/47/21 25/48/21 29/49/21
f 16/27/12 18/30/12 17/28/12
f 18/30/13 20/32/13 19/31/13
f 20/32/14 22/34/14 21/33/14
f 22/34/15 24/36/15 23/35/15
f 24/36/16 26/38/16 25/37/16
f 26/38/17 28/43/17 27/39/17
f 20/42/18 18/50/18 16/51/18
f 16/51/18 30/52/18 28/40/18
f 28/40/18 26/53/18 24/41/18
f 24/41/18 22/54/18 20/42/18
f 20/42/18 16/51/18 28/40/18
f 28/43/19 30/45/19 29/44/19
f 30/45/20 16/55/20 15/46/20
f 29/49/21 15/56/21 17/57/21
f 17/57/21 19/58/21 21/47/21
f 21/47/21 23/59/21 25/48/21
f 25/48/21 27/60/21 29/49/21
f 29/49/21 17/57/21 21/47/21
o Cone
v 0.000000 0.160000 1.300000
v 0.113137 0.113137 1.300000
v 0.160000 0.000000 1.300000
v 0.113137 -0.113137 1.300000
v 0.000000 -0.160000 1.300000
v -0.113137 -0.113137 1.300000
v -0.160000 0.000000 1.300000
v -0.113137 0.113137 1.300000
v 0.000000 -0.000000 1.620000
vn 0.3474 0.8387 0.4194
vn 0.8387 0.3474 0.4194
vn 0.8387 -0.3474 0.4194
vn 0.3474 -0.8387 0.4194
vn -0.3474 -0.8387 0.4194
vn -0.8387 -0.3474 0.4194
vn -0.0000 -0.0000 -1.0000
vn -0.8387 0.3474 0.4194
vn -0.3474 0.8387 0.4194
vt 0.250000 0.490000
vt 0.250000 0.250000
vt 0.419706 0.419706
vt 0.490000 0.250000
vt 0.419706 0.080294
vt 0.250000 0.010000
vt 0.080294 0.080294
vt 0.010000 0.250000
vt 0.919706 0.080294
vt 0.580294 0.080294
vt 0.580294 0.419706
vt 0.080294 0.419706
vt 0.750000 0.490000
vt 0.919706 0.419706
vt 0.990000 0.250000
vt 0.750000 0.010000
vt 0.510000 0.250000
s 0
f 31/61/22 39/62/22 32/63/22
f 32/63/23 39/62/23 33/64/23
f 33/64/24 39/62/24 34/65/24
f 34/65/25 39/62/25 35/66/25
f 35/66/26 39/62/26 36/67/26
f 36/67/27 39/62/27 37/68/27
f 34/69/28 36/70/28 38/71/28
f 37/68/29 39/62/29 38/72/29
f 38/72/30 39/62/30 31/61/30
f 38/71/28 31/73/28 32/74/28
f 32/74/28 33/75/28 34/69/28
f 34/69/28 35/76/28 36/70/28
f 36/70/28 37/77/28 38/71/28
f 38/71/28 32/74/28 34/69/28
