# Blender 5.0.1
# www.blender.org
o Cube
v -0.993375 0.596024 0.323492
v -1.006627 0.603976 0.316510
v -0.993375 -0.596024 0.323492
v -1.006627 -0.603976 0.316510
v 0.000001 0.000000 2.310000
v 0.000001 0.000000 2.330000
v 0.993373 0.596024 0.323490
v 1.006625 0.603976 0.316508
v 0.993373 -0.596024 0.323490
v 1.006625 -0.603976 0.316508
v 0.000001 0.006573 2.298091
v 0.984573 0.597317 0.328943
v -0.984574 0.597317 0.328945
v -0.990001 -0.594000 0.320001
v -0.990001 0.594000 0.320001
v 0.989999 0.594000 0.319999
v 0.989999 -0.594000 0.319999
v 0.995527 -0.590744 0.328943
v 0.995527 0.590744 0.328943
v 0.010956 0.000000 2.298091
v 0.000001 -0.006573 2.298091
v -0.984574 -0.597317 0.328945
v 0.984573 -0.597317 0.328943
v -0.010953 0.000000 2.298091
v -0.995529 0.590744 0.328945
v -0.995529 -0.590744 0.328945
vn -0.3970 -0.8054 -0.4401
vn -0.1796 0.9634 0.1992
vn -0.0000 -0.9730 0.2306
vn -0.0000 0.8816 0.4721
vn 0.3970 -0.8054 -0.4401
vn 0.1796 0.9634 0.1992
vn 0.7191 -0.0000 0.6949
vn 0.2055 -0.0000 -0.9787
vn -0.0000 -0.8651 0.5016
vn -0.0000 -0.3303 -0.9439
vn -0.7191 -0.0000 0.6949
vn -0.2055 -0.0000 -0.9787
vn -0.0000 0.8651 0.5016
vn -0.0000 0.3303 -0.9439
vn -0.9301 -0.0000 0.3674
vn 0.7461 -0.0000 0.6659
vn -0.5196 -0.7114 -0.4732
vn 0.8491 -0.4398 0.2926
vn -0.5196 0.7114 -0.4732
vn 0.8491 0.4398 0.2926
vn 0.3970 0.8054 -0.4401
vn 0.1796 -0.9634 0.1992
vn -0.0000 0.9730 0.2306
vn -0.0000 -0.8816 0.4721
vn -0.3970 0.8054 -0.4401
vn -0.1796 -0.9634 0.1992
vn 0.5196 -0.7114 -0.4732
vn -0.8491 -0.4398 0.2926
vn 0.9301 -0.0000 0.3674
vn -0.7461 -0.0000 0.6659
vn 0.5196 0.7114 -0.4732
vn -0.8491 0.4398 0.2926
vt 0.875000 0.500000
vt 0.875000 0.750000
vt 0.625000 0.750000
vt 0.375000 0.750000
vt 0.625000 1.000000
vt 0.375000 1.000000
vt 0.375000 0.000000
vt 0.625000 0.000000
vt 0.375000 0.250000
vt 0.375000 0.500000
vt 0.125000 0.750000
vt 0.625000 0.500000
s 0
f 11/1/1 12/2/1 7/2/1 5/1/1
f 12/2/2 11/1/2 6/1/2 8/2/2
f 12/2/3 13/3/3 1/3/3 7/2/3
f 13/3/4 12/2/4 8/2/4 2/3/4
f 13/3/5 11/1/5 5/1/5 1/3/5
f 11/1/6 13/3/6 2/3/6 6/1/6
f 14/4/7 15/3/7 1/3/7 3/4/7
f 15/3/8 14/4/8 4/4/8 2/3/8
f 15/3/9 16/5/9 7/5/9 1/3/9
f 16/5/10 15/3/10 2/3/10 8/5/10
f 16/5/11 17/6/11 9/6/11 7/5/11
f 17/6/12 16/5/12 8/5/12 10/6/12
f 17/6/13 14/4/13 3/4/13 9/6/13
f 14/4/14 17/6/14 10/6/14 4/4/14
f 18/7/15 19/8/15 7/8/15 9/7/15
f 19/8/16 18/7/16 10/7/16 8/8/16
f 19/8/17 20/9/17 5/9/17 7/8/17
f 20/9/18 19/8/18 8/8/18 6/9/18
f 20/9/19 18/7/19 9/7/19 5/9/19
f 18/7/20 20/9/20 6/9/20 10/7/20
f 21/10/21 22/4/21 3/4/21 5/10/21
f 22/4/22 21/10/22 6/10/22 4/4/22
f 22/4/23 23/11/23 9/11/23 3/4/23
f 23/11/24 22/4/24 4/4/24 10/11/24
f 23/11/25 21/10/25 5/10/25 9/11/25
f 21/10/26 23/11/26 10/11/26 6/10/26
f 24/12/27 25/3/27 1/3/27 5/12/27
f 25/3/28 24/12/28 6/12/28 2/3/28
f 25/3/29 26/4/29 3/4/29 1/3/29
f 26/4/30 25/3/30 2/3/30 4/4/30
f 26/4/31 24/12/31 5/12/31 3/4/31
f 24/12/32 26/4/32 4/4/32 6/12/32
o Cube.001
v 0.893739 0.701547 0.320667
v 0.906261 0.698453 0.319332
v -0.000000 1.396998 0.320663
v -0.000000 1.403002 0.319338
v 0.893739 0.701547 0.369332
v 0.906261 0.698453 0.370667
v -0.000000 1.396998 0.369338
v -0.000000 1.403002 0.370663
v -0.893739 0.701547 0.320668
v -0.906261 0.698453 0.319334
v -0.893739 0.701547 0.369334
v -0.906261 0.698453 0.370668
v 0.895903 0.703186 0.321199
v 0.004096 1.396814 0.321200
v 0.004096 1.396814 0.368800
v 0.895903 0.703186 0.368799
v 0.885428 0.703600 0.369999
v -0.000000 1.392267 0.370000
v -0.885428 0.703600 0.370001
v -0.895904 0.703186 0.368801
v -0.004097 1.396814 0.368800
v -0.004097 1.396814 0.321200
v -0.895904 0.703186 0.321201
v -0.885429 0.703600 0.320001
v -0.000000 1.392267 0.320000
v 0.885428 0.703600 0.319999
v 0.891200 0.700000 0.368799
v -0.891200 0.700000 0.368801
v -0.891200 0.700000 0.321201
v 0.891200 0.700000 0.321199
vn -0.1287 -0.1654 0.9778
vn 0.3674 0.4725 0.8011
vn -0.0450 -0.9990 -0.0000
vn 0.8338 0.5520 -0.0000
vn -0.1287 -0.1654 -0.9778
vn 0.3674 0.4725 -0.8011
vn -0.6038 0.7971 -0.0000
vn 0.4156 0.9095 -0.0000
vn -0.1113 -0.1430 -0.9834
vn -0.0473 -0.0609 0.9970
vn 0.1113 -0.1430 -0.9834
vn 0.0473 -0.0609 0.9970
vn -0.0000 0.3091 -0.9510
vn -0.0000 0.1286 0.9917
vn 0.1287 -0.1654 -0.9778
vn -0.3674 0.4725 -0.8011
vn 0.0450 -0.9990 -0.0000
vn -0.8338 0.5520 -0.0000
vn 0.1287 -0.1654 0.9778
vn -0.3674 0.4725 0.8011
vn 0.6038 0.7971 -0.0000
vn -0.4156 0.9095 -0.0000
vn 0.1113 -0.1430 0.9834
vn 0.0473 -0.0609 -0.9970
vn -0.1113 -0.1430 0.9834
vn -0.0473 -0.0609 -0.9970
vn -0.0000 0.3091 0.9510
vn -0.0000 0.1286 -0.9917
vn -0.0000 0.3256 -0.9455
vn -0.0000 -0.7701 -0.6379
vn 0.5203 0.8540 -0.0000
vn 0.1022 -0.9948 -0.0000
vn -0.0000 0.3256 0.9455
vn -0.0000 -0.7701 0.6379
vn -0.5203 0.8540 -0.0000
vn -0.1022 -0.9948 -0.0000
vt 0.375000 0.000000
vt 0.625000 0.000000
vt 0.625000 0.250000
vt 0.375000 0.250000
vt 0.625000 0.500000
vt 0.375000 0.500000
vt 0.625000 0.750000
vt 0.375000 0.750000
vt 0.625000 1.000000
vt 0.375000 1.000000
vt 0.125000 0.500000
vt 0.125000 0.750000
s 0
f 39/13/33 40/14/33 29/14/33 27/13/33
f 40/14/34 39/13/34 28/13/34 30/14/34
f 40/14/35 41/15/35 33/15/35 29/14/35
f 41/15/36 40/14/36 30/14/36 34/15/36
f 41/15/37 42/16/37 31/16/37 33/15/37
f 42/16/38 41/15/38 34/15/38 32/16/38
f 42/16/39 39/13/39 27/13/39 31/16/39
f 39/13/40 42/16/40 32/16/40 28/13/40
f 43/16/41 44/17/41 33/17/41 31/16/41
f 44/17/42 43/16/42 32/16/42 34/17/42
f 44/17/43 45/18/43 37/18/43 33/17/43
f 45/18/44 44/17/44 34/17/44 38/18/44
f 45/18/45 43/16/45 31/16/45 37/18/45
f 43/16/46 45/18/46 38/18/46 32/16/46
f 46/18/47 47/17/47 33/17/47 37/18/47
f 47/17/48 46/18/48 38/18/48 34/17/48
f 47/17/49 48/19/49 29/19/49 33/17/49
f 48/19/50 47/17/50 34/17/50 30/19/50
f 48/19/51 49/20/51 35/20/51 29/19/51
f 49/20/52 48/19/52 30/19/52 36/20/52
f 49/20/53 46/18/53 37/18/53 35/20/53
f 46/18/54 49/20/54 36/20/54 38/18/54
f 50/20/55 51/21/55 29/21/55 35/20/55
f 51/21/56 50/20/56 36/20/56 30/21/56
f 51/21/57 52/22/57 27/22/57 29/21/57
f 52/22/58 51/21/58 30/21/58 28/22/58
f 52/22/59 50/20/59 35/20/59 27/22/59
f 50/20/60 52/22/60 28/22/60 36/20/60
f 53/23/61 54/18/61 37/18/61 31/23/61
f 54/18/62 53/23/62 32/23/62 38/18/62
f 54/18/63 55/20/63 35/20/63 37/18/63
f 55/20/64 54/18/64 38/18/64 36/20/64
f 55/20/65 56/24/65 27/24/65 35/20/65
f 56/24/66 55/20/66 36/20/66 28/24/66
f 56/24/67 53/23/67 31/23/67 27/24/67
f 53/23/68 56/24/68 28/24/68 32/23/68
o Cylinder
v 0.000000 0.092236 1.113698
v 0.000000 0.107764 1.126303
v -0.000001 0.092236 0.026303
v -0.000001 0.107764 0.013698
v -0.065221 0.065221 1.113698
v -0.076200 0.076201 1.126303
v -0.065222 0.065221 0.026303
v -0.076201 0.076201 0.013698
v -0.092236 0.000000 1.113698
v -0.107764 0.000000 1.126303
v -0.092237 -0.000000 0.026303
v -0.107765 -0.000000 0.013698
v -0.065221 -0.065221 1.113698
v -0.076200 -0.076201 1.126303
v -0.065222 -0.065221 0.026303
v -0.076201 -0.076201 0.013698
v 0.000000 -0.092236 1.113698
v 0.000000 -0.107764 1.126303
v -0.000001 -0.092236 0.026303
v -0.000001 -0.107764 0.013698
v 0.065221 -0.065221 1.113698
v 0.076201 -0.076201 1.126303
v 0.065220 -0.065221 0.026303
v 0.076200 -0.076201 0.013697
v 0.092236 0.000000 1.113698
v 0.107764 0.000000 1.126303
v 0.092235 -0.000000 0.026303
v 0.107763 -0.000000 0.013697
v 0.065221 0.065221 1.113698
v 0.076201 0.076201 1.126303
v 0.065220 0.065221 0.026303
v 0.076200 0.076201 0.013697
v -0.009239 0.096173 1.110000
v -0.009240 0.096173 0.030000
v -0.061473 0.074538 0.030000
v -0.061472 0.074538 1.110000
v -0.074537 0.061472 1.110000
v -0.074538 0.061472 0.030000
v -0.096174 0.009239 0.030000
v -0.096173 0.009239 1.110000
v -0.096173 -0.009239 1.110000
v -0.096174 -0.009239 0.030000
v -0.074538 -0.061472 0.030000
v -0.074537 -0.061472 1.110000
v -0.061472 -0.074538 1.110000
v -0.061473 -0.074538 0.030000
v -0.009240 -0.096173 0.030000
v -0.009239 -0.096173 1.110000
v 0.009239 -0.096173 1.110000
v 0.009238 -0.096173 0.030000
v 0.061471 -0.074538 0.030000
v 0.061472 -0.074538 1.110000
v 0.074538 -0.061472 1.110000
v 0.074537 -0.061472 0.030000
v 0.096172 -0.009239 0.030000
v 0.096173 -0.009239 1.110000
v -0.063058 0.063057 0.020000
v -0.000001 0.089176 0.020000
v 0.063056 0.063057 0.020000
v 0.089175 -0.000000 0.020000
v 0.063056 -0.063057 0.020000
v -0.000001 -0.089176 0.020000
v -0.063058 -0.063057 0.020000
v -0.089177 -0.000000 0.020000
v 0.096173 0.009239 1.110000
v 0.096172 0.009239 0.030000
v 0.074537 0.061472 0.030000
v 0.074538 0.061472 1.110000
v 0.061472 0.074538 1.110000
v 0.061471 0.074538 0.030000
v 0.009238 0.096173 0.030000
v 0.009239 0.096173 1.110000
v 0.000000 0.089176 1.120000
v -0.063057 0.063057 1.120000
v -0.089176 0.000000 1.120000
v -0.063057 -0.063057 1.120000
v 0.000000 -0.089176 1.120000
v 0.063057 -0.063057 1.120000
v 0.089176 0.000000 1.120000
v 0.063057 0.063057 1.120000
vn -0.3920 -0.9200 -0.0000
vn -0.7820 0.6233 -0.0000
vn 0.1753 -0.4233 0.8889
vn -0.3503 0.8456 0.4027
vn 0.9277 -0.3733 -0.0000
vn 0.1122 0.9937 -0.0000
vn 0.1753 -0.4233 -0.8889
vn -0.3503 0.8456 -0.4027
vn 0.3733 -0.9277 -0.0000
vn -0.9937 -0.1122 -0.0000
vn 0.4233 -0.1753 0.8889
vn -0.8456 0.3503 0.4027
vn 0.9200 0.3920 -0.0000
vn -0.6233 0.7820 -0.0000
vn 0.4233 -0.1753 -0.8889
vn -0.8456 0.3503 -0.4027
vn 0.9200 -0.3920 -0.0000
vn -0.6233 -0.7820 -0.0000
vn 0.4233 0.1753 0.8889
vn -0.8456 -0.3503 0.4027
vn 0.3733 0.9277 -0.0000
vn -0.9937 0.1122 -0.0000
vn 0.4233 0.1753 -0.8889
vn -0.8456 -0.3503 -0.4027
vn 0.9277 0.3733 -0.0000
vn 0.1122 -0.9937 -0.0000
vn 0.1753 0.4233 0.8889
vn -0.3503 -0.8456 0.4027
vn -0.3920 0.9200 -0.0000
vn -0.7820 -0.6233 -0.0000
vn 0.1753 0.4233 -0.8889
vn -0.3503 -0.8456 -0.4027
vn 0.3920 0.9200 -0.0000
vn 0.7820 -0.6233 -0.0000
vn -0.1753 0.4233 0.8889
vn 0.3503 -0.8456 0.4027
vn -0.9277 0.3733 -0.0000
vn -0.1122 -0.9937 -0.0000
vn -0.1753 0.4233 -0.8889
vn 0.3503 -0.8456 -0.4027
vn -0.3733 0.9277 -0.0000
vn 0.9937 0.1122 -0.0000
vn -0.4233 0.1753 0.8889
vn 0.8456 -0.3503 0.4027
vn -0.9200 -0.3920 -0.0000
vn 0.6233 -0.7820 -0.0000
vn -0.4233 0.1753 -0.8889
vn 0.8456 -0.3503 -0.4027
vn 0.3492 -0.8430 0.4093
vn 0.1318 -0.3183 -0.9388
vn -0.3492 -0.8430 0.4093
vn -0.1318 -0.3183 -0.9388
vn -0.8430 -0.3492 0.4093
vn -0.3183 -0.1318 -0.9388
vn -0.8430 0.3492 0.4093
vn -0.3183 0.1318 -0.9388
vn -0.3492 0.8430 0.4093
vn -0.1319 0.3183 -0.9388
vn 0.3492 0.8430 0.4093
vn 0.1318 0.3183 -0.9388
vn 0.8430 0.3492 0.4093
vn 0.3183 0.1318 -0.9388
vn 0.8430 -0.3492 0.4093
vn 0.3183 -0.1318 -0.9388
vn -0.9200 0.3920 -0.0000
vn 0.6233 0.7820 -0.0000
vn -0.4233 -0.1753 0.8889
vn 0.8456 0.3503 0.4027
vn -0.3733 -0.9277 -0.0000
vn 0.9937 -0.1122 -0.0000
vn -0.4233 -0.1753 -0.8889
vn 0.8456 0.3503 -0.4027
vn -0.9277 -0.3733 -0.0000
vn -0.1122 0.9937 -0.0000
vn -0.1753 -0.4233 0.8889
vn 0.3503 0.8456 0.4027
vn 0.3920 -0.9200 -0.0000
vn 0.7820 0.6233 -0.0000
vn -0.1753 -0.4233 -0.8889
vn 0.3503 0.8456 -0.4027
vn 0.3492 -0.8430 -0.4093
vn 0.1318 -0.3183 0.9388
vn 0.8430 -0.3492 -0.4093
vn 0.3183 -0.1318 0.9388
vn 0.8430 0.3492 -0.4093
vn 0.3183 0.1318 0.9388
vn 0.3492 0.8430 -0.4093
vn 0.1318 0.3183 0.9388
vn -0.3492 0.8430 -0.4093
vn -0.1318 0.3183 0.9388
vn -0.8430 0.3492 -0.4093
vn -0.3183 0.1318 0.9388
vn -0.8430 -0.3492 -0.4093
vn -0.3183 -0.1318 0.9388
vn -0.3492 -0.8430 -0.4093
vn -0.1318 -0.3183 0.9388
vt 1.000000 0.500000
vt 1.000000 1.000000
vt 0.875000 1.000000
vt 0.875000 0.500000
vt 0.750000 1.000000
vt 0.750000 0.500000
vt 0.625000 1.000000
vt 0.625000 0.500000
vt 0.500000 1.000000
vt 0.500000 0.500000
vt 0.375000 1.000000
vt 0.375000 0.500000
vt 0.250000 1.000000
vt 0.250000 0.500000
vt 0.419706 0.419706
vt 0.250000 0.490000
vt 0.080294 0.419706
vt 0.010000 0.250000
vt 0.080294 0.080294
vt 0.250000 0.010000
vt 0.419706 0.080294
vt 0.490000 0.250000
vt 0.125000 1.000000
vt 0.125000 0.500000
vt 0.000000 1.000000
vt 0.000000 0.500000
vt 0.750000 0.490000
vt 0.919706 0.419706
vt 0.990000 0.250000
vt 0.919706 0.080294
vt 0.750000 0.010000
vt 0.580294 0.080294
vt 0.510000 0.250000
vt 0.580294 0.419706
s 0
f 89/25/69 90/26/69 59/26/69 57/25/69
f 90/26/70 89/25/70 58/25/70 60/26/70
f 90/26/71 91/27/71 63/27/71 59/26/71
f 91/27/72 90/26/72 60/26/72 64/27/72
f 91/27/73 92/28/73 61/28/73 63/27/73
f 92/28/74 91/27/74 64/27/74 62/28/74
f 92/28/75 89/25/75 57/25/75 61/28/75
f 89/25/76 92/28/76 62/28/76 58/25/76
f 93/28/77 94/27/77 63/27/77 61/28/77
f 94/27/78 93/28/78 62/28/78 64/27/78
f 94/27/79 95/29/79 67/29/79 63/27/79
f 95/29/80 94/27/80 64/27/80 68/29/80
f 95/29/81 96/30/81 65/30/81 67/29/81
f 96/30/82 95/29/82 68/29/82 66/30/82
f 96/30/83 93/28/83 61/28/83 65/30/83
f 93/28/84 96/30/84 66/30/84 62/28/84
f 97/30/85 98/29/85 67/29/85 65/30/85
f 98/29/86 97/30/86 66/30/86 68/29/86
f 98/29/87 99/31/87 71/31/87 67/29/87
f 99/31/88 98/29/88 68/29/88 72/31/88
f 99/31/89 100/32/89 69/32/89 71/31/89
f 100/32/90 99/31/90 72/31/90 70/32/90
f 100/32/91 97/30/91 65/30/91 69/32/91
f 97/30/92 100/32/92 70/32/92 66/30/92
f 101/32/93 102/31/93 71/31/93 69/32/93
f 102/31/94 101/32/94 70/32/94 72/31/94
f 102/31/95 103/33/95 75/33/95 71/31/95
f 103/33/96 102/31/96 72/31/96 76/33/96
f 103/33/97 104/34/97 73/34/97 75/33/97
f 104/34/98 103/33/98 76/33/98 74/34/98
f 104/34/99 101/32/99 69/32/99 73/34/99
f 101/32/100 104/34/100 74/34/100 70/32/100
f 105/34/101 106/33/101 75/33/101 73/34/101
f 106/33/102 105/34/102 74/34/102 76/33/102
f 106/33/103 107/35/103 79/35/103 75/33/103
f 107/35/104 106/33/104 76/33/104 80/35/104
f 107/35/105 108/36/105 77/36/105 79/35/105
f 108/36/106 107/35/106 80/35/106 78/36/106
f 108/36/107 105/34/107 73/34/107 77/36/107
f 105/34/108 108/36/108 78/36/108 74/34/108
f 109/36/109 110/35/109 79/35/109 77/36/109
f 110/35/110 109/36/110 78/36/110 80/35/110
f 110/35/111 111/37/111 83/37/111 79/35/111
f 111/37/112 110/35/112 80/35/112 84/37/112
f 111/37/113 112/38/113 81/38/113 83/37/113
f 112/38/114 111/37/114 84/37/114 82/38/114
f 112/38/115 109/36/115 77/36/115 81/38/115
f 109/36/116 112/38/116 82/38/116 78/36/116
f 113/39/117 114/40/117 59/40/117 63/39/117
f 114/40/118 113/39/118 64/39/118 60/40/118
f 114/40/119 115/41/119 87/41/119 59/40/119
f 115/41/120 114/40/120 60/40/120 88/41/120
f 115/41/121 116/42/121 83/42/121 87/41/121
f 116/42/122 115/41/122 88/41/122 84/42/122
f 116/42/123 117/43/123 79/43/123 83/42/123
f 117/43/124 116/42/124 84/42/124 80/43/124
f 117/43/125 118/44/125 75/44/125 79/43/125
f 118/44/126 117/43/126 80/43/126 76/44/126
f 118/44/127 119/45/127 71/45/127 75/44/127
f 119/45/128 118/44/128 76/44/128 72/45/128
f 119/45/129 120/46/129 67/46/129 71/45/129
f 120/46/130 119/45/130 72/45/130 68/46/130
f 120/46/131 113/39/131 63/39/131 67/46/131
f 113/39/132 120/46/132 68/46/132 64/39/132
f 121/38/133 122/37/133 83/37/133 81/38/133
f 122/37/134 121/38/134 82/38/134 84/37/134
f 122/37/135 123/47/135 87/47/135 83/37/135
f 123/47/136 122/37/136 84/37/136 88/47/136
f 123/47/137 124/48/137 85/48/137 87/47/137
f 124/48/138 123/47/138 88/47/138 86/48/138
f 124/48/139 121/38/139 81/38/139 85/48/139
f 121/38/140 124/48/140 86/48/140 82/38/140
f 125/48/141 126/47/141 87/47/141 85/48/141
f 126/47/142 125/48/142 86/48/142 88/47/142
f 126/47/143 127/49/143 59/49/143 87/47/143
f 127/49/144 126/47/144 88/47/144 60/49/144
f 127/49/145 128/50/145 57/50/145 59/49/145
f 128/50/146 127/49/146 60/49/146 58/50/146
f 128/50/147 125/48/147 85/48/147 57/50/147
f 125/48/148 128/50/148 58/50/148 86/48/148
f 129/51/149 130/52/149 61/52/149 57/51/149
f 130/52/150 129/51/150 58/51/150 62/52/150
f 130/52/151 131/53/151 65/53/151 61/52/151
f 131/53/152 130/52/152 62/52/152 66/53/152
f 131/53/153 132/54/153 69/54/153 65/53/153
f 132/54/154 131/53/154 66/53/154 70/54/154
f 132/54/155 133/55/155 73/55/155 69/54/155
f 133/55/156 132/54/156 70/54/156 74/55/156
f 133/55/157 134/56/157 77/56/157 73/55/157
f 134/56/158 133/55/158 74/55/158 78/56/158
f 134/56/159 135/57/159 81/57/159 77/56/159
f 135/57/160 134/56/160 78/56/160 82/57/160
f 135/57/161 136/58/161 85/58/161 81/57/161
f 136/58/162 135/57/162 82/57/162 86/58/162
f 136/58/163 129/51/163 57/51/163 85/58/163
f 129/51/164 136/58/164 86/58/164 58/51/164
o Cone
v -0.000000 0.145713 0.012797
v -0.000000 0.174287 0.027203
v -0.103035 0.103035 0.012797
v -0.123240 0.123240 0.027203
v -0.145713 0.000000 0.012797
v -0.174287 0.000000 0.027203
v -0.103035 -0.103035 0.012797
v -0.123240 -0.123240 0.027203
v -0.000000 -0.145713 0.012797
v -0.000000 -0.174287 0.027203
v 0.103035 -0.103035 0.012797
v 0.123240 -0.123240 0.027202
v 0.145713 0.000000 0.012797
v 0.174287 0.000000 0.027202
v 0.103035 0.103035 0.012797
v 0.123240 0.123240 0.027202
v -0.000000 -0.000000 -0.284000
v -0.000000 -0.000000 -0.316000
v -0.015003 0.146523 0.005475
v -0.015004 0.036221 -0.215128
v -0.092998 0.114216 0.005475
v -0.114216 0.092998 0.005475
v -0.036222 0.015003 -0.215128
v -0.146523 0.015003 0.005475
v -0.146523 -0.015003 0.005475
v -0.036222 -0.015003 -0.215128
v -0.114216 -0.092998 0.005475
v -0.092998 -0.114216 0.005475
v -0.015004 -0.036221 -0.215128
v -0.015003 -0.146523 0.005475
v 0.015003 -0.146523 0.005475
v 0.015003 -0.036221 -0.215128
v 0.092998 -0.114216 0.005475
v 0.114216 -0.092998 0.005475
v 0.036221 -0.015003 -0.215128
v 0.146523 -0.015003 0.005475
v -0.000000 0.142682 0.020000
v -0.100891 0.100891 0.020000
v -0.142682 0.000000 0.020000
v -0.100891 -0.100891 0.020000
v -0.000000 -0.142682 0.020000
v 0.100891 -0.100891 0.020000
v 0.142682 0.000000 0.020000
v 0.100891 0.100891 0.020000
v 0.146523 0.015003 0.005475
v 0.036221 0.015003 -0.215128
v 0.114216 0.092998 0.005475
v 0.092998 0.114216 0.005475
v 0.015003 0.036221 -0.215128
v 0.015003 0.146523 0.005475
vn -0.1927 -0.8795 0.4352
vn -0.6837 0.6515 -0.3288
vn 0.7582 -0.4856 0.4352
vn 0.0228 0.9441 -0.3288
vn 0.2864 -0.6914 -0.6633
vn -0.2821 0.6812 -0.6756
vn 0.4856 -0.7582 0.4352
vn -0.9441 -0.0228 -0.3288
vn 0.8795 0.1927 0.4352
vn -0.6515 0.6837 -0.3288
vn 0.6914 -0.2864 -0.6633
vn -0.6812 0.2821 -0.6756
vn 0.8795 -0.1927 0.4352
vn -0.6515 -0.6837 -0.3288
vn 0.4856 0.7582 0.4352
vn -0.9441 0.0228 -0.3288
vn 0.6914 0.2864 -0.6633
vn -0.6812 -0.2821 -0.6756
vn 0.7582 0.4856 0.4352
vn 0.0228 -0.9441 -0.3288
vn -0.1927 0.8795 0.4352
vn -0.6837 -0.6515 -0.3288
vn 0.2864 0.6914 -0.6633
vn -0.2821 -0.6812 -0.6756
vn 0.1927 0.8795 0.4352
vn 0.6837 -0.6515 -0.3288
vn -0.7582 0.4856 0.4352
vn -0.0228 -0.9441 -0.3288
vn -0.2864 0.6914 -0.6633
vn 0.2821 -0.6812 -0.6756
vn -0.4856 0.7582 0.4352
vn 0.9441 0.0228 -0.3288
vn -0.8795 -0.1927 0.4352
vn 0.6515 -0.6837 -0.3288
vn -0.6914 0.2864 -0.6633
vn 0.6812 -0.2821 -0.6756
vn 0.3567 -0.8611 -0.3624
vn 0.0917 -0.2213 0.9709
vn 0.8611 -0.3567 -0.3624
vn 0.2213 -0.0916 0.9709
vn 0.8611 0.3567 -0.3624
vn 0.2213 0.0916 0.9709
vn 0.3567 0.8611 -0.3624
vn 0.0917 0.2213 0.9709
vn -0.3567 0.8611 -0.3624
vn -0.0916 0.2213 0.9709
vn -0.8611 0.3567 -0.3624
vn -0.2213 0.0916 0.9709
vn -0.8611 -0.3567 -0.3624
vn -0.2213 -0.0916 0.9709
vn -0.3567 -0.8611 -0.3624
vn -0.0916 -0.2213 0.9709
vn -0.8795 0.1927 0.4352
vn 0.6515 0.6837 -0.3288
vn -0.4856 -0.7582 0.4352
vn 0.9441 -0.0228 -0.3288
vn -0.6914 -0.2864 -0.6633
vn 0.6812 0.2821 -0.6756
vn -0.7582 -0.4856 0.4352
vn -0.0228 0.9441 -0.3288
vn 0.1927 -0.8795 0.4352
vn 0.6837 0.6515 -0.3288
vn -0.2864 -0.6914 -0.6633
vn 0.2821 0.6812 -0.6756
vt 0.250000 0.490000
vt 0.250000 0.250000
vt 0.419706 0.419706
vt 0.490000 0.250000
vt 0.419706 0.080294
vt 0.250000 0.010000
vt 0.080294 0.080294
vt 0.010000 0.250000
vt 0.750000 0.490000
vt 0.919706 0.419706
vt 0.990000 0.250000
vt 0.919706 0.080294
vt 0.750000 0.010000
vt 0.580294 0.080294
vt 0.510000 0.250000
vt 0.580294 0.419706
vt 0.080294 0.419706
s 0
f 155/59/165 156/60/165 153/60/165 137/59/165
f 156/60/166 155/59/166 138/59/166 154/60/166
f 156/60/167 157/61/167 139/61/167 153/60/167
f 157/61/168 156/60/168 154/60/168 140/61/168
f 157/61/169 155/59/169 137/59/169 139/61/169
f 155/59/170 157/61/170 140/61/170 138/59/170
f 158/61/171 159/60/171 153/60/171 139/61/171
f 159/60/172 158/61/172 140/61/172 154/60/172
f 159/60/173 160/62/173 141/62/173 153/60/173
f 160/62/174 159/60/174 154/60/174 142/62/174
f 160/62/175 158/61/175 139/61/175 141/62/175
f 158/61/176 160/62/176 142/62/176 140/61/176
f 161/62/177 162/60/177 153/60/177 141/62/177
f 162/60/178 161/62/178 142/62/178 154/60/178
f 162/60/179 163/63/179 143/63/179 153/60/179
f 163/63/180 162/60/180 154/60/180 144/63/180
f 163/63/181 161/62/181 141/62/181 143/63/181
f 161/62/182 163/63/182 144/63/182 142/62/182
f 164/63/183 165/60/183 153/60/183 143/63/183
f 165/60/184 164/63/184 144/63/184 154/60/184
f 165/60/185 166/64/185 145/64/185 153/60/185
f 166/64/186 165/60/186 154/60/186 146/64/186
f 166/64/187 164/63/187 143/63/187 145/64/187
f 164/63/188 166/64/188 146/64/188 144/63/188
f 167/64/189 168/60/189 153/60/189 145/64/189
f 168/60/190 167/64/190 146/64/190 154/60/190
f 168/60/191 169/65/191 147/65/191 153/60/191
f 169/65/192 168/60/192 154/60/192 148/65/192
f 169/65/193 167/64/193 145/64/193 147/65/193
f 167/64/194 169/65/194 148/65/194 146/64/194
f 170/65/195 171/60/195 153/60/195 147/65/195
f 171/60/196 170/65/196 148/65/196 154/60/196
f 171/60/197 172/66/197 149/66/197 153/60/197
f 172/66/198 171/60/198 154/60/198 150/66/198
f 172/66/199 170/65/199 147/65/199 149/66/199
f 170/65/200 172/66/200 150/66/200 148/65/200
f 173/67/201 174/68/201 139/68/201 137/67/201
f 174/68/202 173/67/202 138/67/202 140/68/202
f 174/68/203 175/69/203 141/69/203 139/68/203
f 175/69/204 174/68/204 140/68/204 142/69/204
f 175/69/205 176/70/205 143/70/205 141/69/205
f 176/70/206 175/69/206 142/69/206 144/70/206
f 176/70/207 177/71/207 145/71/207 143/70/207
f 177/71/208 176/70/208 144/70/208 146/71/208
f 177/71/209 178/72/209 147/72/209 145/71/209
f 178/72/210 177/71/210 146/71/210 148/72/210
f 178/72/211 179/73/211 149/73/211 147/72/211
f 179/73/212 178/72/212 148/72/212 150/73/212
f 179/73/213 180/74/213 151/74/213 149/73/213
f 180/74/214 179/73/214 150/73/214 152/74/214
f 180/74/215 173/67/215 137/67/215 151/74/215
f 173/67/216 180/74/216 152/74/216 138/67/216
f 181/66/217 182/60/217 153/60/217 149/66/217
f 182/60/218 181/66/218 150/66/218 154/60/218
f 182/60/219 183/75/219 151/75/219 153/60/219
f 183/75/220 182/60/220 154/60/220 152/75/220
f 183/75/221 181/66/221 149/66/221 151/75/221
f 181/66/222 183/75/222 152/75/222 150/66/222
f 184/75/223 185/60/223 153/60/223 151/75/223
f 185/60/224 184/75/224 152/75/224 154/60/224
f 185/60/225 186/59/225 137/59/225 153/60/225
f 186/59/226 185/60/226 154/60/226 138/59/226
f 186/59/227 184/75/227 151/75/227 137/59/227
f 184/75/228 186/59/228 138/59/228 152/75/228
