# Blender 4.3.2
# www.blender.org
o Ramiel
v 0.020966 0.026907 1.450497 0.1451 0.1843 0.8392
v -0.020966 0.026907 1.450497 0.1451 0.1843 0.8392
v -0.020966 -0.026907 1.450497 0.1451 0.1843 0.8392
v 0.020966 -0.026907 1.450497 0.1451 0.1843 0.8392
v 0.020966 -0.026907 -1.450497 0.1451 0.1843 0.8392
v -0.020966 -0.026907 -1.450497 0.1451 0.1843 0.8392
v -0.020966 0.026907 -1.450497 0.1451 0.1843 0.8392
v 0.020966 0.026907 -1.450497 0.1451 0.1843 0.8392
v -1.455131 -0.026907 -0.027728 0.1451 0.1843 0.8392
v -1.455131 -0.026907 0.027728 0.1451 0.1843 0.8392
v -1.455131 0.026907 0.027728 0.1451 0.1843 0.8392
v -1.455131 0.026907 -0.027728 0.1451 0.1843 0.8392
v 1.455131 -0.026907 0.027728 0.1451 0.1843 0.8392
v 1.455131 -0.026907 -0.027728 0.1451 0.1843 0.8392
v 1.455131 0.026907 -0.027728 0.1451 0.1843 0.8392
v 1.455131 0.026907 0.027728 0.1451 0.1843 0.8392
v -0.021022 -1.354423 0.027790 0.1451 0.1843 0.8392
v -0.021022 -1.354423 -0.027790 0.1451 0.1843 0.8392
v 0.021022 -1.354423 -0.027790 0.1451 0.1843 0.8392
v 0.021022 -1.354423 0.027790 0.1451 0.1843 0.8392
v 0.021022 1.354423 0.027790 0.1451 0.1843 0.8392
v 0.021022 1.354423 -0.027790 0.1451 0.1843 0.8392
v -0.021022 1.354423 -0.027790 0.1451 0.1843 0.8392
v -0.021022 1.354423 0.027790 0.1451 0.1843 0.8392
vn 0.5605 -0.6055 0.5650
vn 0.7043 -0.0000 -0.7099
vn -0.5605 0.6055 0.5650
vn -0.5605 0.6055 -0.5650
vn 0.5605 -0.6055 -0.5650
vn -0.0000 -0.7311 -0.6822
vn 0.5605 0.6055 0.5650
vn -0.5605 -0.6055 -0.5650
vn 0.7043 -0.0000 0.7099
vn -0.5605 -0.6055 0.5650
vn 0.5605 0.6055 -0.5650
vn -0.0000 -0.0000 1.0000
vn -0.0000 -0.0000 -1.0000
vn -0.0000 0.7311 0.6822
vn -0.0000 0.7311 -0.6822
vn -0.0000 -0.7311 0.6822
vn -0.7043 -0.0000 0.7099
vn 1.0000 -0.0000 -0.0000
vn -1.0000 -0.0000 -0.0000
vn -0.0000 -1.0000 -0.0000
vn -0.0000 1.0000 -0.0000
vn -0.6793 -0.7339 -0.0000
vn 0.6793 -0.7339 -0.0000
vn -0.6793 0.7339 -0.0000
vn 0.6793 0.7339 -0.0000
vn -0.7043 -0.0000 -0.7099
vt 0.379045 0.754621
vt 0.497338 0.754611
vt 0.497338 0.991217
vt 0.502662 0.745389
vt 0.497338 0.503459
vt 0.502662 0.508783
vt 0.502662 0.008783
vt 0.620955 0.245379
vt 0.502662 0.245389
vt 0.502662 0.259935
vt 0.620955 0.496532
vt 0.502662 0.496541
vt 0.379045 0.503468
vt 0.497338 0.740065
vt 0.496325 0.500000
vt 0.502662 0.759935
vt 0.620955 0.996532
vt 0.502662 0.996541
vt 0.379045 0.254621
vt 0.497338 0.254611
vt 0.497338 0.491217
vt 0.379045 0.003468
vt 0.497338 0.003459
vt 0.497338 0.240065
vt 0.620955 0.745379
vt 0.497338 0.994676
vt 0.502662 1.000000
vt 0.502662 0.505324
vt 0.497338 0.500000
vt 0.503675 1.000000
vt 0.621971 0.743943
vt 0.378029 0.756057
vt 0.497338 0.744676
vt 0.502662 0.255324
vt 0.497338 0.250000
vt 0.375718 0.500000
vt 0.378029 0.500000
vt 0.623266 0.750000
vt 0.377682 0.250000
vt 0.495978 0.250000
vt 0.495978 0.741956
vt 0.377682 0.505363
vt 0.504022 0.258044
vt 0.622318 0.494637
vt 0.622318 0.750000
vt 0.621971 1.000000
vt 0.503675 0.507351
vt 0.496325 0.992649
vt 0.502662 0.750000
vt 0.376734 0.503468
vt 0.624282 0.748564
vt 0.504022 0.750000
s 1
f 20/1/1 13/2/1 4/3/1
f 15/4/2 5/5/2 8/6/2
f 2/7/3 24/8/3 11/9/3
f 12/10/4 23/11/4 7/12/4
f 19/13/5 5/5/5 14/14/5
f 19/13/6 6/15/6 5/5/6
f 16/16/7 21/17/7 1/18/7
f 18/19/8 9/20/8 6/21/8
f 1/18/9 13/2/9 16/16/9
f 17/22/10 3/23/10 10/24/10
f 8/6/11 22/25/11 15/4/11
f 3/26/12 1/18/12 2/27/12
f 7/28/13 5/5/13 6/29/13
f 21/17/14 2/30/14 1/18/14
f 8/6/15 23/31/15 22/25/15
f 4/3/16 17/32/16 20/1/16
f 11/9/17 3/23/17 2/7/17
f 15/4/18 13/33/18 14/14/18
f 11/34/19 9/20/19 10/35/19
f 19/13/20 17/36/20 18/37/20
f 23/31/21 21/38/21 22/25/21
f 9/20/22 17/39/22 10/40/22
f 19/13/23 13/41/23 20/42/23
f 23/11/24 11/43/24 24/44/24
f 21/45/25 15/4/25 22/25/25
f 7/12/26 9/20/26 12/10/26
f 15/4/2 14/14/2 5/5/2
f 19/13/6 18/37/6 6/15/6
f 1/18/9 4/3/9 13/2/9
f 3/26/12 4/3/12 1/18/12
f 7/28/13 8/6/13 5/5/13
f 21/17/14 24/46/14 2/30/14
f 8/6/15 7/47/15 23/31/15
f 4/3/16 3/48/16 17/32/16
f 11/9/17 10/24/17 3/23/17
f 15/4/18 16/49/18 13/33/18
f 11/34/19 12/10/19 9/20/19
f 19/13/20 20/50/20 17/36/20
f 23/31/21 24/51/21 21/38/21
f 9/20/22 18/19/22 17/39/22
f 19/13/23 14/14/23 13/41/23
f 23/11/24 12/10/24 11/43/24
f 21/45/25 16/52/25 15/4/25
f 7/12/26 6/21/26 9/20/26
