# Blender 4.3.2
# www.blender.org
mtllib ERROR.mtl
o ERROR_1
v -0.539319 -0.243979 -0.085991
v -0.704341 0.232933 0.082331
v -0.984878 0.317094 0.082331
v -0.704341 0.317094 0.082331
v -0.900717 0.232933 0.082331
v -0.900717 0.064611 0.082331
v -0.788502 0.064611 0.082331
v -0.788502 0.008504 0.082331
v -0.900717 0.008504 0.082331
v -0.900717 -0.187872 0.082331
v -0.704341 -0.187872 0.082331
v -0.704341 -0.243979 0.082331
v -0.984878 -0.243979 0.082331
v -0.539319 0.317094 -0.085991
v -0.258783 0.317094 -0.085991
v -0.258783 0.092665 -0.085991
v -0.399051 0.092665 -0.085991
v -0.258783 -0.243979 -0.085991
v -0.342944 -0.243979 -0.085991
v -0.455158 0.036558 -0.085991
v -0.455158 -0.243979 -0.085991
v 0.690681 -0.243979 -0.085991
v 0.690681 0.317094 -0.085991
v 0.971217 0.317094 -0.085991
v 0.971217 0.092665 -0.085991
v 0.830949 0.092665 -0.085991
v 0.971217 -0.243979 -0.085991
v 0.887056 -0.243979 -0.085991
v 0.774842 0.036558 -0.085991
v 0.774842 -0.243979 -0.085991
v 0.277537 -0.243979 0.082331
v 0.572219 -0.243979 -0.085991
v 0.277537 -0.243979 -0.085991
v 0.774842 -0.243979 0.082331
v 0.774842 0.036558 0.082331
v 0.887056 -0.243979 0.082331
v 0.971217 -0.243979 0.082331
v 0.830949 0.092665 0.082331
v 0.971217 0.092665 0.082331
v 0.971217 0.317094 0.082331
v 0.690681 0.317094 0.082331
v 0.690681 -0.243979 0.082331
v -0.455158 -0.243979 0.082331
v -0.455158 0.036558 0.082331
v -0.342944 -0.243979 0.082331
v -0.258783 -0.243979 0.082331
v -0.399051 0.092665 0.082331
v -0.258783 0.092665 0.082331
v -0.258783 0.317094 0.082331
v -0.539319 0.317094 0.082331
v -0.984878 -0.243979 -0.085991
v -0.704341 -0.243979 -0.085991
v -0.704341 -0.187872 -0.085991
v -0.900717 -0.187872 -0.085991
v -0.900717 0.008504 -0.085991
v -0.788502 0.008504 -0.085991
v -0.788502 0.064611 -0.085991
v -0.900717 0.064611 -0.085991
v -0.900717 0.232933 -0.085991
v -0.704341 0.317094 -0.085991
v -0.984878 0.317094 -0.085991
v -0.704341 0.232933 -0.085991
v -0.539319 -0.243979 0.082331
v -0.984878 0.064611 0.082331
v -0.984878 0.008504 0.082331
v -0.984878 0.064611 -0.085991
v -0.984878 0.008504 -0.085991
v 0.572219 -0.243979 0.082331
v 0.277537 -0.243979 0.082331
v 0.572219 -0.243979 0.082331
v 0.572219 0.316021 0.082331
v 0.277537 0.316021 -0.085991
v 0.572219 0.316021 -0.085991
v 0.277537 0.316021 0.082331
v -0.119319 -0.243979 0.082331
v -0.119319 0.317094 0.082331
v 0.161217 0.317094 0.082331
v 0.161217 0.092665 0.082331
v 0.020949 0.092665 0.082331
v 0.161217 -0.243979 0.082331
v 0.077056 -0.243979 0.082331
v -0.035158 0.036558 0.082331
v -0.035158 -0.243979 0.082331
v -0.035158 -0.243979 -0.085991
v -0.035158 0.036558 -0.085991
v 0.077056 -0.243979 -0.085991
v 0.161217 -0.243979 -0.085991
v 0.020949 0.092665 -0.085991
v 0.161217 0.092665 -0.085991
v 0.161217 0.317094 -0.085991
v -0.119319 0.317094 -0.085991
v -0.119319 -0.243979 -0.085991
v 0.277537 0.316021 0.082331
v 0.572219 0.316021 0.082331
v 0.358000 -0.150000 0.082300
v 0.502000 -0.150000 0.082300
v 0.358000 0.210000 0.082300
v 0.502000 0.210000 0.082300
v 0.358000 -0.150000 -0.086000
v 0.502000 -0.150000 -0.086000
v 0.358000 0.210000 -0.086000
v 0.502000 0.210000 -0.086000
v -0.470000 0.140000 0.082330
v -0.320000 0.140000 0.082330
v -0.470000 0.270000 0.082330
v -0.320000 0.270000 0.082330
v -0.470000 0.140000 -0.085970
v -0.320000 0.140000 -0.085970
v -0.470000 0.270000 -0.085970
v -0.320000 0.270000 -0.085970
v -0.050000 0.140000 0.082330
v 0.100000 0.140000 0.082330
v -0.050000 0.270000 0.082330
v 0.100000 0.270000 0.082330
v -0.050000 0.140000 -0.085970
v 0.100000 0.140000 -0.085970
v -0.050000 0.270000 -0.085970
v 0.100000 0.270000 -0.085970
v 0.760000 0.140000 0.082330
v 0.910000 0.140000 0.082330
v 0.760000 0.270000 0.082330
v 0.910000 0.270000 0.082330
v 0.760000 0.140000 -0.085970
v 0.910000 0.140000 -0.085970
v 0.760000 0.270000 -0.085970
v 0.910000 0.270000 -0.085970
vn -0.0000 1.0000 -0.0000
vn -0.0000 -1.0000 -0.0000
vn -0.0001 -0.0000 -1.0000
vn -1.0000 -0.0000 -0.0000
vn -0.0000 -0.0000 1.0000
vn 0.0003 -0.0000 1.0000
vn 1.0000 -0.0000 -0.0000
vn -0.0000 -0.0000 -1.0000
vn 0.9231 0.3846 -0.0000
vn 0.9285 0.3714 -0.0000
vn -0.0000 -0.0003 1.0000
vn -0.0004 -0.0000 1.0000
vn -0.0000 0.0003 1.0000
vn -0.0004 -0.0000 -1.0000
vn 0.0004 -0.0000 1.0000
vn 0.0001 -0.0000 -1.0000
vn -0.0001 -0.0000 1.0000
vn -0.0000 -0.0001 1.0000
vn -0.0000 0.0001 -1.0000
vn -0.0000 0.0001 1.0000
vn -0.0000 -0.0001 -1.0000
vn -0.0000 0.0004 1.0000
vn -0.0000 -0.0004 -1.0000
vn -0.0003 -0.0000 -1.0000
vn -0.0000 -0.0004 1.0000
vn -0.0000 0.0004 -1.0000
vn -0.0003 -0.0000 1.0000
vn 0.0014 -0.0000 1.0000
vn 0.0002 -0.0002 1.0000
vt 0.796789 0.809094
vt 0.712497 0.725606
vt 0.718785 0.737919
vt 0.709106 0.734359
vt 0.732109 0.736394
vt 0.724867 0.722213
vt 0.735053 0.728793
vt 0.791193 0.823539
vt 0.787668 0.818487
vt 0.742909 0.774255
vt 0.732724 0.767675
vt 0.738319 0.753231
vt 0.706898 0.740049
vt 0.713186 0.752362
vt 0.703507 0.748802
vt 0.769203 0.737863
vt 0.770885 0.733522
vt 0.774296 0.741153
vt 0.796447 0.790779
vt 0.789687 0.797269
vt 0.786853 0.793629
vt 0.692980 0.757469
vt 0.681513 0.752688
vt 0.683780 0.752326
vt 0.687117 0.739730
vt 0.695073 0.752066
vt 0.684888 0.745486
vt 0.764548 0.788233
vt 0.762828 0.781088
vt 0.770154 0.773760
vt 0.812582 0.789338
vt 0.821659 0.795201
vt 0.823311 0.798181
vt 0.693322 0.742222
vt 0.696125 0.734986
vt 0.706310 0.741566
vt 0.823358 0.790816
vt 0.814281 0.784953
vt 0.812533 0.782172
vt 0.685087 0.730607
vt 0.681442 0.740014
vt 0.680062 0.728405
vt 0.775978 0.736811
vt 0.809730 0.789408
vt 0.803039 0.773808
vt 0.813225 0.780388
vt 0.811132 0.785790
vt 0.828918 0.783709
vt 0.826115 0.790945
vt 0.815929 0.784366
vt 0.697303 0.746310
vt 0.772614 0.745495
vt 0.767521 0.742205
vt 0.753928 0.744421
vt 0.747897 0.736630
vt 0.756318 0.738251
vt 0.799544 0.782829
vt 0.714644 0.715729
vt 0.724830 0.722309
vt 0.711737 0.723234
vt 0.721923 0.729814
vt 0.722538 0.761095
vt 0.728112 0.746706
vt 0.798622 0.757810
vt 0.800304 0.753468
vt 0.807111 0.763293
vt 0.684031 0.718164
vt 0.688409 0.722035
vt 0.680387 0.727571
vt 0.762258 0.777707
vt 0.758302 0.776960
vt 0.758271 0.766084
vt 0.818732 0.777129
vt 0.738298 0.753286
vt 0.808793 0.758951
vt 0.743394 0.773005
vt 0.758507 0.765473
vt 0.752664 0.780556
vt 0.779563 0.763136
vt 0.789749 0.769715
vt 0.774000 0.777497
vt 0.748505 0.759810
vt 0.742318 0.742914
vt 0.735076 0.728733
vt 0.745262 0.735313
vt 0.781959 0.754245
vt 0.779156 0.761481
vt 0.768970 0.754902
vt 0.792656 0.762211
vt 0.784700 0.749876
vt 0.794886 0.756455
vt 0.715847 0.745495
vt 0.726032 0.752074
vt 0.776353 0.768718
vt 0.776399 0.761352
vt 0.774701 0.765737
vt 0.767322 0.755489
vt 0.765623 0.759874
vt 0.764173 0.756326
vt 0.805413 0.767679
vt 0.802610 0.774915
vt 0.792424 0.768335
vt 0.805412 0.767678
vt 0.795227 0.761099
vt 0.728298 0.764920
vt 0.722724 0.779309
vt 0.718112 0.758341
vt 0.771773 0.747666
vt 0.717528 0.741153
vt 0.709040 0.735670
vt 0.776290 0.788023
vt 0.772334 0.787277
vt 0.772302 0.776400
vt 0.820228 0.806141
vt 0.813469 0.812631
vt 0.810634 0.808991
vt 0.696654 0.690765
vt 0.701032 0.694637
vt 0.693010 0.700172
vt 0.723305 0.708183
vt 0.724987 0.703841
vt 0.728398 0.711473
vt 0.730080 0.707131
vt 0.685157 0.743281
vt 0.680132 0.741079
vt 0.765575 0.752708
vt 0.726779 0.716136
vt 0.736466 0.725147
vt 0.732593 0.723093
vt 0.782470 0.755631
vt 0.712352 0.754516
vt 0.778579 0.798549
vt 0.776859 0.791404
vt 0.784186 0.784077
vt 0.712538 0.772729
vt 0.707358 0.740012
vt 0.739001 0.718603
vt 0.733908 0.715313
vt 0.740682 0.714261
vt 0.735590 0.710972
vt 0.698336 0.686424
vt 0.701747 0.694055
vt 0.703429 0.689714
vt 0.760390 0.727739
vt 0.758708 0.732081
vt 0.751902 0.722256
vt 0.767590 0.743293
vt 0.756652 0.792179
vt 0.752696 0.791433
vt 0.687677 0.708756
vt 0.692055 0.712628
vt 0.684033 0.718163
vt 0.808344 0.798465
vt 0.801585 0.804955
vt 0.798750 0.801314
vt 0.737342 0.722885
vt 0.747029 0.731896
vt 0.743156 0.729842
vt 0.750581 0.749393
vt 0.759658 0.755257
vt 0.761310 0.758237
vt 0.728815 0.712023
vt 0.730497 0.707682
vt 0.750220 0.726598
vt 0.698920 0.727780
vt 0.690964 0.715444
vt 0.701149 0.722024
vt 0.688734 0.721200
vt 0.766917 0.743765
vt 0.764113 0.751001
vt 0.756731 0.737185
vt 0.738484 0.771500
vt 0.732910 0.785889
vt 0.705847 0.757129
vt 0.716033 0.763709
vt 0.702352 0.766150
vt 0.705259 0.758645
vt 0.692166 0.759570
vt 0.701551 0.716654
vt 0.704354 0.709418
vt 0.714540 0.715998
vt 0.771260 0.765428
vt 0.769297 0.770493
vt 0.773549 0.775954
vt 0.804092 0.793004
vt 0.803251 0.795175
vt 0.792209 0.785328
vt 0.786275 0.784209
vt 0.816028 0.773151
vt 0.805842 0.766572
vt 0.717344 0.708762
vt 0.819392 0.764469
vt 0.817710 0.768810
vt 0.814299 0.761179
vt 0.807553 0.762250
vt 0.812617 0.765520
vt 0.759112 0.763913
vt 0.793891 0.780986
vt 0.788798 0.777696
vt 0.707782 0.752133
vt 0.802053 0.776354
vt 0.791867 0.769774
vt 0.727133 0.716365
vt 0.737319 0.722945
vt 0.741879 0.722011
vt 0.750254 0.723572
vt 0.747882 0.729694
vt 0.727995 0.747009
vt 0.717809 0.740429
vt 0.705847 0.757129
vt 0.717995 0.758643
vt 0.687962 0.708021
vt 0.679489 0.707976
vt 0.681171 0.703635
vt 0.686280 0.712363
vt 0.683444 0.736746
vt 0.686839 0.738940
vt 0.685157 0.743281
vt 0.795247 0.755629
vt 0.796929 0.751287
vt 0.801242 0.783925
vt 0.794451 0.779539
vt 0.800681 0.785372
vt 0.789358 0.776249
vt 0.808905 0.797017
vt 0.803812 0.793728
vt 0.752353 0.781359
vt 0.748828 0.781340
vt 0.749839 0.778731
vt 0.815695 0.801404
vt 0.815135 0.802851
vt 0.676741 0.736977
vt 0.669951 0.732590
vt 0.678423 0.732635
vt 0.673315 0.723907
vt 0.680105 0.728293
vt 0.708833 0.735054
vt 0.698647 0.728474
vt 0.743228 0.755604
vt 0.746032 0.748368
vt 0.746624 0.757797
vt 0.748586 0.752732
vt 0.760469 0.760408
vt 0.806335 0.787215
vt 0.810867 0.791952
vt 0.822751 0.799629
vt 0.773735 0.742600
vt 0.783921 0.749180
vt 0.822291 0.767943
vt 0.817233 0.770104
vt 0.818915 0.765762
vt 0.820609 0.772284
vt 0.685087 0.730607
vt 0.695272 0.737186
vt 0.683136 0.735643
vt 0.701723 0.720544
vt 0.711909 0.727123
vt 0.796438 0.824152
vt 0.806120 0.830407
vt 0.809026 0.835058
vt 0.814621 0.820613
vt 0.810117 0.820089
vt 0.743700 0.740235
vt 0.748824 0.741159
vt 0.800435 0.813835
vt 0.814516 0.778536
vt 0.818366 0.778073
vt 0.791665 0.808170
vt 0.741779 0.779642
vt 0.747058 0.795028
vt 0.737076 0.775134
vt 0.766346 0.790646
vt 0.773361 0.812019
vt 0.768548 0.807048
vt 0.758941 0.802705
vt 0.683331 0.719970
vt 0.678130 0.718947
vt 0.751363 0.783916
vt 0.728399 0.711473
vt 0.717035 0.709559
vt 0.718716 0.705218
vt 0.726717 0.715814
vt 0.732132 0.736334
vt 0.742316 0.742913
vt 0.728135 0.746652
vt 0.721924 0.729815
vt 0.717950 0.740073
vt 0.728135 0.746652
vt 0.808028 0.762556
vt 0.806346 0.766897
vt 0.707661 0.702507
vt 0.709343 0.698166
vt 0.768616 0.739380
vt 0.756732 0.737186
vt 0.761357 0.750872
vt 0.750532 0.742228
vt 0.752280 0.745009
vt 0.749131 0.745846
vt 0.757221 0.795560
vt 0.759455 0.784943
vt 0.769499 0.783636
vt 0.769465 0.776480
vt 0.772302 0.776400
vt 0.737601 0.723053
vt 0.739843 0.717264
vt 0.742570 0.720229
vt 0.748365 0.735422
vt 0.744978 0.738640
vt 0.747220 0.732853
vt 0.786805 0.777316
vt 0.786835 0.781796
vt 0.784563 0.783103
vt 0.796461 0.790788
vt 0.794815 0.806623
vt 0.790854 0.805260
vt 0.796314 0.802754
vt 0.801554 0.794078
vt 0.820432 0.772745
vt 0.830616 0.779324
vt 0.693048 0.705734
vt 0.682342 0.704246
vt 0.684023 0.699905
vt 0.787491 0.746251
vt 0.796568 0.752114
vt 0.685021 0.715612
vt 0.677278 0.713800
vt 0.679525 0.708000
vt 0.759538 0.733517
vt 0.761220 0.729175
vt 0.703250 0.712269
vt 0.691367 0.710075
vt 0.694764 0.701305
vt 0.704949 0.707884
vt 0.779093 0.780787
vt 0.724513 0.721984
vt 0.766696 0.790873
vt 0.766662 0.783716
vt 0.815267 0.776071
vt 0.817509 0.770282
vt 0.820236 0.773247
vt 0.750607 0.729636
vt 0.749462 0.727067
vt 0.789046 0.771529
vt 0.789077 0.776009
vt 0.806698 0.814299
vt 0.802738 0.812937
vt 0.808197 0.810430
vt 0.813437 0.801755
vt 0.724272 0.714235
vt 0.721882 0.720405
vt 0.715827 0.712675
vt 0.709586 0.695914
vt 0.707339 0.701714
vt 0.701843 0.694102
vt 0.775417 0.738259
vt 0.784494 0.744123
vt 0.782812 0.748464
vt 0.693998 0.697621
vt 0.686255 0.695809
vt 0.688502 0.690009
vt 0.821539 0.773461
vt 0.823221 0.769120
vt 0.702848 0.717639
vt 0.690965 0.715445
vt 0.686787 0.726223
vt 0.696971 0.732801
vt 0.765061 0.770470
vt 0.683754 0.746902
vt 0.667735 0.743788
vt 0.667700 0.736632
vt 0.670538 0.736552
vt 0.672811 0.722677
vt 0.675053 0.716888
vt 0.677779 0.719853
vt 0.725269 0.717187
vt 0.724124 0.714618
vt 0.763601 0.753245
vt 0.763631 0.757725
vt 0.761359 0.759032
vt 0.784563 0.783103
vt 0.782917 0.798937
vt 0.778957 0.797575
vt 0.784416 0.795068
vt 0.789656 0.786393
vt 0.698894 0.700155
vt 0.684040 0.699861
vt 0.694747 0.701349
vt 0.693065 0.705690
vt 0.669416 0.739447
vt 0.678493 0.745310
vt 0.676812 0.749651
vt 0.696245 0.691821
vt 0.690749 0.684209
vt 0.671098 0.735106
vt 0.751471 0.727405
vt 0.757501 0.735197
vt 0.749080 0.733576
vt 0.688485 0.721838
vt 0.698670 0.728416
s 0
usemtl Material
f 31/1/1 68/1/1 70/1/1 69/1/1
f 73/2/1 72/3/1 93/4/1
f 93/5/2 73/6/2 94/7/2
f 33/1/3 72/8/3 101/9/3
f 94/10/4 73/11/4 32/12/4 71/10/4
f 32/13/1 33/14/1 69/15/1
f 36/16/2 28/17/2 37/18/2
f 28/19/5 26/20/5 29/21/5
f 124/22/6 24/23/6 126/24/6
f 39/25/7 24/26/7 40/27/7
f 41/28/8 119/29/8 42/30/8
f 119/31/5 121/32/5 41/33/5
f 29/34/4 30/35/4 34/36/4
f 122/37/5 120/38/5 39/39/5
f 37/40/5 38/41/5 36/42/5
f 28/17/2 27/43/2 37/18/2
f 26/44/9 37/45/9 27/46/9
f 121/32/5 122/37/5 41/33/5
f 34/36/4 35/15/4 29/34/4
f 120/38/5 119/31/5 38/47/5
f 41/48/1 40/49/1 24/50/1
f 24/26/7 39/25/7 25/51/7
f 41/33/5 122/37/5 40/49/5
f 42/52/1 34/53/1 22/18/1
f 119/54/1 120/55/1 124/56/1
f 37/45/9 26/44/9 38/57/9
f 36/58/10 28/59/10 35/60/10
f 28/59/10 29/61/10 35/60/10
f 41/62/7 42/63/7 23/11/7
f 40/49/5 122/37/5 39/39/5
f 38/64/2 26/65/2 39/66/2
f 22/18/1 34/53/1 30/16/1
f 27/67/8 28/68/8 26/69/8
f 39/39/5 120/38/5 38/47/5
f 35/70/8 38/71/8 36/72/8
f 24/50/1 23/73/1 41/48/1
f 22/74/7 23/11/7 42/63/7
f 25/75/2 39/66/2 26/65/2
f 72/76/4 33/77/4 74/78/4 93/78/4
f 69/79/7 33/80/7 93/81/7 74/81/7 31/79/7
f 74/1/1 71/1/1 94/1/1 93/1/1
f 68/82/4 94/10/4 71/10/4 32/12/4 70/82/4
f 69/83/2 32/84/2 70/85/2
f 76/86/1 77/87/1 90/88/1
f 90/89/7 78/90/7 89/91/7
f 88/62/9 80/92/9 87/93/9
f 76/94/5 114/95/5 77/87/5
f 113/96/5 114/95/5 76/94/5
f 112/97/5 111/98/5 79/99/5
f 83/100/4 82/101/4 85/102/4
f 111/66/1 112/103/1 116/104/1
f 92/105/7 91/106/7 75/107/7
f 90/88/1 91/108/1 76/86/1
f 89/109/2 78/92/2 88/110/2
f 82/111/8 79/112/8 81/113/8
f 86/114/5 88/115/5 85/116/5
f 87/117/8 86/118/8 88/119/8
f 81/120/2 86/121/2 80/122/2
f 86/121/2 87/123/2 80/122/2
f 80/124/5 79/23/5 81/125/5
f 78/126/5 112/97/5 79/99/5
f 116/127/6 90/128/6 118/129/6
f 81/130/10 86/89/10 82/79/10
f 80/92/9 88/62/9 79/131/9
f 86/89/10 85/80/10 82/79/10
f 77/87/5 114/95/5 78/126/5
f 85/102/4 84/104/4 83/100/4
f 114/95/5 112/97/5 78/126/5
f 76/132/8 111/133/8 75/134/8
f 78/90/7 90/89/7 77/130/7
f 76/135/7 75/107/7 91/106/7
f 79/136/2 88/110/2 78/92/2
f 75/137/1 83/138/1 92/139/1
f 111/98/5 113/96/5 76/94/5
f 92/139/1 83/138/1 84/140/1
f 45/117/2 19/141/2 46/142/2
f 19/141/2 18/143/2 46/142/2
f 16/144/2 48/145/2 17/146/2
f 46/52/5 47/88/5 45/147/5
f 44/148/8 47/149/8 45/78/8
f 18/150/8 19/151/8 17/152/8
f 19/153/5 17/154/5 20/155/5
f 108/156/6 15/157/6 110/158/6
f 103/159/5 105/160/5 50/161/5
f 63/138/1 43/162/1 1/140/1
f 1/140/1 43/162/1 21/163/1
f 47/164/2 17/146/2 48/145/2
f 15/165/7 48/166/7 16/167/7
f 48/166/7 15/165/7 49/168/7
f 50/169/1 49/170/1 15/54/1
f 15/54/1 14/171/1 50/169/1
f 1/172/7 14/173/7 63/105/7
f 50/106/7 63/105/7 14/173/7
f 17/135/9 46/174/9 18/175/9
f 46/174/9 17/135/9 47/176/9
f 45/26/10 19/177/10 44/178/10
f 19/177/10 20/176/10 44/178/10
f 20/179/4 21/180/4 43/181/4
f 43/181/4 44/60/4 20/179/4
f 2/182/5 4/94/5 5/183/5
f 4/94/5 3/184/5 5/183/5
f 62/185/5 60/186/5 59/187/5
f 61/188/5 59/187/5 60/186/5
f 3/189/1 4/46/1 61/190/1
f 60/181/2 4/180/2 61/191/2
f 62/192/4 2/193/4 60/194/4
f 2/195/7 60/194/7 4/196/7
f 5/183/5 3/184/5 6/197/5
f 3/184/5 64/72/5 6/197/5
f 59/187/5 61/188/5 58/198/5
f 61/188/5 66/199/5 58/198/5
f 3/177/4 61/26/4 64/200/4
f 66/201/7 61/57/7 64/202/7
f 59/203/4 58/162/4 5/204/4
f 6/205/7 58/206/7 5/207/7
f 2/208/2 5/93/2 62/209/2
f 59/175/1 5/210/1 62/211/1
f 58/212/1 7/213/1 57/214/1
f 7/213/1 58/212/1 6/215/1
f 57/216/4 56/217/4 8/218/4
f 8/65/7 57/219/7 7/220/7
f 56/221/5 58/198/5 55/222/5
f 57/223/5 58/198/5 56/221/5
f 67/224/5 55/222/5 66/199/5
f 58/198/5 66/199/5 55/222/5
f 65/102/7 67/101/7 64/202/7
f 66/201/7 64/202/7 67/101/7
f 9/225/5 6/153/5 65/226/5
f 64/227/8 6/228/8 65/229/8
f 8/230/5 7/231/5 9/225/5
f 6/153/5 9/225/5 7/231/5
f 8/232/2 9/233/2 56/234/2
f 56/235/1 55/236/1 9/234/1
f 13/237/4 65/36/4 51/238/4
f 67/35/4 51/238/4 65/36/4
f 52/239/8 51/240/8 53/241/8
f 54/242/8 53/241/8 51/240/8
f 67/161/8 55/243/8 51/240/8
f 54/242/8 51/240/8 55/243/8
f 9/225/5 13/244/5 10/245/5
f 65/226/5 13/244/5 9/225/5
f 13/244/5 12/33/5 10/245/5
f 11/246/5 10/245/5 12/33/5
f 54/247/1 11/86/1 53/108/1
f 11/86/1 54/247/1 10/248/1
f 53/249/7 12/250/7 52/251/7
f 12/250/7 53/249/7 11/252/7
f 55/34/7 10/253/7 54/254/7
f 10/253/7 55/34/7 9/255/7
f 52/256/2 12/257/2 51/165/2
f 13/4/2 51/165/2 12/257/2
f 97/258/11 98/259/11 74/8/11 93/8/11
f 74/8/11 98/259/11 94/260/11 71/260/11 93/8/11
f 98/259/12 68/261/12 70/261/12 71/260/12 94/260/12
f 68/261/12 98/259/12 96/262/12 70/261/12
f 96/262/13 31/1/13 69/1/13 68/261/13 70/261/13
f 95/263/14 69/264/14 31/264/14 74/239/14 93/239/14
f 97/258/15 93/8/15 95/265/15
f 96/50/13 95/266/13 69/267/13
f 101/9/3 99/268/3 33/1/3
f 100/269/16 102/270/16 32/271/16
f 32/272/17 73/273/17 102/274/17
f 102/274/18 73/273/18 101/275/18
f 72/8/19 73/273/19 101/9/19
f 33/276/20 32/69/20 99/277/20
f 99/278/21 100/269/21 32/271/21
f 99/279/1 96/280/1 100/281/1
f 96/280/1 99/279/1 95/282/1
f 100/283/4 96/284/4 102/285/4
f 96/284/4 98/12/4 102/285/4
f 95/286/7 99/5/7 97/287/7
f 99/5/7 101/288/7 97/287/7
f 102/289/1 101/193/1 98/290/1
f 98/191/2 97/291/2 101/292/2
f 103/293/1 104/169/1 108/294/1
f 105/160/5 106/295/5 50/161/5
f 50/161/5 106/295/5 49/170/5
f 49/170/5 106/295/5 48/296/5
f 106/295/5 104/297/5 48/296/5
f 48/296/5 104/297/5 47/298/5
f 104/297/5 103/159/5 47/298/5
f 50/275/8 103/299/8 63/28/8
f 43/300/8 63/28/8 103/299/8
f 44/148/16 43/300/16 103/299/16
f 47/149/8 44/148/8 103/299/8
f 110/158/22 15/157/22 109/84/22
f 15/301/23 109/302/23 14/303/23
f 15/304/24 16/305/24 108/306/24
f 108/307/25 107/308/25 16/309/25
f 16/310/26 17/311/26 107/312/26
f 1/313/27 109/314/27 14/315/27
f 109/314/27 1/313/27 107/316/27
f 21/317/28 20/155/28 107/316/28
f 20/155/29 17/154/29 107/316/29
f 1/313/18 21/317/18 107/316/18
f 108/48/2 103/318/2 107/319/2
f 103/320/7 109/321/7 105/322/7
f 109/323/4 107/324/4 103/91/4
f 108/325/7 110/326/7 104/327/7
f 104/293/4 106/328/4 110/329/4
f 110/330/1 109/179/1 105/331/1
f 105/330/2 110/332/2 106/333/2
f 83/334/8 75/134/8 111/133/8
f 82/111/16 83/334/16 111/133/16
f 79/112/8 82/111/8 111/133/8
f 118/129/22 90/128/22 117/335/22
f 90/336/23 117/337/23 91/301/23
f 90/338/24 89/339/24 116/340/24
f 116/341/25 115/309/25 89/342/25
f 89/343/26 88/344/26 115/310/26
f 92/153/27 117/345/27 91/346/27
f 117/345/27 92/153/27 115/347/27
f 84/348/28 85/116/28 115/347/28
f 85/116/29 88/115/29 115/347/29
f 92/153/18 84/348/18 115/347/18
f 116/349/2 111/350/2 115/351/2
f 111/352/7 117/353/7 113/354/7
f 117/355/4 115/356/4 111/357/4
f 116/358/7 118/359/7 112/360/7
f 112/319/4 114/361/4 118/362/4
f 118/363/1 117/167/1 113/364/1
f 113/254/2 118/365/2 114/366/2
f 34/367/8 42/30/8 119/29/8
f 35/70/16 34/367/16 119/29/16
f 38/71/8 35/70/8 119/29/8
f 126/24/22 24/23/22 125/368/22
f 24/369/23 125/370/23 23/371/23
f 24/372/24 25/373/24 124/374/24
f 124/375/25 123/350/25 25/376/25
f 25/377/26 26/378/26 123/379/26
f 22/380/27 125/381/27 23/382/27
f 125/381/27 22/380/27 123/383/27
f 30/384/28 29/21/28 123/383/28
f 29/21/29 26/20/29 123/383/29
f 22/380/18 30/384/18 123/383/18
f 124/353/2 119/333/2 123/385/2
f 119/386/7 125/387/7 121/388/7
f 125/389/4 123/390/4 119/391/4
f 124/392/7 126/360/7 120/393/7
f 120/390/4 122/389/4 126/394/4
f 126/395/1 125/396/1 121/397/1
f 121/366/2 126/398/2 122/399/2
