# Blender 5.1.1
# www.blender.org
o Cube.001
v 0.048000 0.640000 -0.048000 0.0561 0.1990 0.6552
v 0.048000 -0.800000 -0.048000 0.0561 0.1990 0.6552
v 0.048000 0.640000 0.048000 0.0561 0.1990 0.6552
v 0.048000 -0.800000 0.048000 0.0561 0.1990 0.6552
v -0.048000 0.640000 -0.048000 0.0561 0.1990 0.6552
v -0.048000 -0.800000 -0.048000 0.0561 0.1990 0.6552
v -0.048000 0.640000 0.048000 0.0561 0.1990 0.6552
v -0.048000 -0.800000 0.048000 0.0561 0.1990 0.6552
vn -0.0000 1.0000 -0.0000
vn -0.0000 -0.0000 1.0000
vn -1.0000 -0.0000 -0.0000
vn -0.0000 -1.0000 -0.0000
vn 1.0000 -0.0000 -0.0000
vn -0.0000 -0.0000 -1.0000
vt 0.875000 0.500000
vt 0.625000 0.750000
vt 0.625000 0.500000
vt 0.375000 1.000000
vt 0.375000 0.750000
vt 0.625000 0.000000
vt 0.375000 0.250000
vt 0.375000 0.000000
vt 0.375000 0.500000
vt 0.125000 0.750000
vt 0.125000 0.500000
vt 0.625000 0.250000
vt 0.875000 0.750000
vt 0.625000 1.000000
s 1
f 5/1/1 3/2/1 1/3/1
f 3/2/2 8/4/2 4/5/2
f 7/6/3 6/7/3 8/8/3
f 2/9/4 8/10/4 6/11/4
f 1/3/5 4/5/5 2/9/5
f 5/12/6 2/9/6 6/7/6
f 5/1/1 7/13/1 3/2/1
f 3/2/2 7/14/2 8/4/2
f 7/6/3 5/12/3 6/7/3
f 2/9/4 4/5/4 8/10/4
f 1/3/5 3/2/5 4/5/5
f 5/12/6 1/3/6 2/9/6
o Cube.002
v -0.048000 0.048000 -0.640000 0.0756 0.6073 0.0873
v -0.048000 0.048000 0.800000 0.0756 0.6073 0.0873
v -0.048000 -0.048000 -0.640000 0.0756 0.6073 0.0873
v -0.048000 -0.048000 0.800000 0.0756 0.6073 0.0873
v 0.048000 0.048000 -0.640000 0.0756 0.6073 0.0873
v 0.048000 0.048000 0.800000 0.0756 0.6073 0.0873
v 0.048000 -0.048000 -0.640000 0.0756 0.6073 0.0873
v 0.048000 -0.048000 0.800000 0.0756 0.6073 0.0873
vn -0.0000 -0.0000 -1.0000
vn -0.0000 -1.0000 -0.0000
vn 1.0000 -0.0000 -0.0000
vn -0.0000 -0.0000 1.0000
vn -1.0000 -0.0000 -0.0000
vn -0.0000 1.0000 -0.0000
vt 0.875000 0.500000
vt 0.625000 0.750000
vt 0.625000 0.500000
vt 0.375000 1.000000
vt 0.375000 0.750000
vt 0.625000 0.000000
vt 0.375000 0.250000
vt 0.375000 0.000000
vt 0.375000 0.500000
vt 0.125000 0.750000
vt 0.125000 0.500000
vt 0.625000 0.250000
vt 0.875000 0.750000
vt 0.625000 1.000000
s 1
f 13/15/7 11/16/7 9/17/7
f 11/16/8 16/18/8 12/19/8
f 15/20/9 14/21/9 16/22/9
f 10/23/10 16/24/10 14/25/10
f 9/17/11 12/19/11 10/23/11
f 13/26/12 10/23/12 14/21/12
f 13/15/7 15/27/7 11/16/7
f 11/16/8 15/28/8 16/18/8
f 15/20/9 13/26/9 14/21/9
f 10/23/10 12/19/10 16/24/10
f 9/17/11 11/16/11 12/19/11
f 13/26/12 9/17/12 10/23/12
o Cube.003
v 0.644000 0.048000 -0.048000 0.6471 0.2432 0.2588
v -0.800000 0.048000 -0.048000 0.6471 0.2432 0.2588
v 0.644000 -0.048000 -0.048000 0.6471 0.2432 0.2588
v -0.800000 -0.048000 -0.048000 0.6471 0.2432 0.2588
v 0.644000 0.048000 0.048000 0.6471 0.2432 0.2588
v -0.800000 0.048000 0.048000 0.6471 0.2432 0.2588
v 0.644000 -0.048000 0.048000 0.6471 0.2432 0.2588
v -0.800000 -0.048000 0.048000 0.6471 0.2432 0.2588
vn 1.0000 -0.0000 -0.0000
vn -0.0000 -1.0000 -0.0000
vn -0.0000 -0.0000 1.0000
vn -1.0000 -0.0000 -0.0000
vn -0.0000 -0.0000 -1.0000
vn -0.0000 1.0000 -0.0000
vt 0.875000 0.500000
vt 0.625000 0.750000
vt 0.625000 0.500000
vt 0.375000 1.000000
vt 0.375000 0.750000
vt 0.625000 0.000000
vt 0.375000 0.250000
vt 0.375000 0.000000
vt 0.375000 0.500000
vt 0.125000 0.750000
vt 0.125000 0.500000
vt 0.625000 0.250000
vt 0.875000 0.750000
vt 0.625000 1.000000
s 1
f 21/29/13 19/30/13 17/31/13
f 19/30/14 24/32/14 20/33/14
f 23/34/15 22/35/15 24/36/15
f 18/37/16 24/38/16 22/39/16
f 17/31/17 20/33/17 18/37/17
f 21/40/18 18/37/18 22/35/18
f 21/29/13 23/41/13 19/30/13
f 19/30/14 23/42/14 24/32/14
f 23/34/15 21/40/15 22/35/15
f 18/37/16 20/33/16 24/38/16
f 17/31/17 19/30/17 20/33/17
f 21/40/18 17/31/18 18/37/18
o Cube.004
v 0.642934 0.080000 0.080000 0.6471 0.2432 0.2588
v 0.642934 0.080000 -0.000000 0.6471 0.2432 0.2588
v 0.962934 0.000000 0.012000 0.6471 0.2432 0.2588
v 0.962934 0.012000 0.012000 0.6471 0.2432 0.2588
v 0.962934 0.012000 -0.000000 0.6471 0.2432 0.2588
v 0.642934 0.000000 0.000000 0.6471 0.2432 0.2588
v 0.642934 0.080000 -0.080000 0.6471 0.2432 0.2588
v 0.962934 0.012000 -0.012000 0.6471 0.2432 0.2588
v 0.642934 -0.000000 -0.080000 0.6471 0.2432 0.2588
v 0.642934 -0.080000 -0.080000 0.6471 0.2432 0.2588
v 0.962934 -0.000000 -0.012000 0.6471 0.2432 0.2588
v 0.962934 -0.012000 -0.012000 0.6471 0.2432 0.2588
v 0.962934 0.000000 0.000000 0.6471 0.2432 0.2588
v 0.642934 -0.080000 0.000000 0.6471 0.2432 0.2588
v 0.642934 0.000000 0.080000 0.6471 0.2432 0.2588
v 0.642934 -0.080000 0.080000 0.6471 0.2432 0.2588
v 0.962934 -0.012000 0.000000 0.6471 0.2432 0.2588
v 0.962934 -0.012000 0.012000 0.6471 0.2432 0.2588
vn -1.0000 -0.0000 -0.0000
vn -0.0000 -0.0000 -1.0000
vn 1.0000 -0.0000 -0.0000
vn 0.2079 -0.0000 0.9782
vn -0.0000 -1.0000 -0.0000
vn 0.2079 0.9782 -0.0000
vn 0.2079 -0.0000 -0.9782
vn -0.0000 -0.0000 1.0000
vn 0.2079 -0.9782 -0.0000
vt 0.625000 0.000000
vt 0.375000 0.250000
vt 0.375000 0.000000
vt 0.625000 0.500000
vt 0.375000 0.500000
vt 0.375000 0.750000
vt 0.625000 0.750000
vt 0.375000 1.000000
vt 0.125000 0.500000
vt 0.125000 0.750000
vt 0.875000 0.500000
vt 0.875000 0.750000
vt 0.625000 0.250000
vt 0.625000 1.000000
s 1
f 25/43/19 30/44/19 39/45/19
f 30/44/20 29/46/20 37/47/20
f 29/46/21 27/48/21 37/47/21
f 28/49/22 39/50/22 27/48/22
f 30/51/23 27/48/23 39/52/23
f 26/53/24 28/49/24 29/46/24
f 26/43/19 33/44/19 30/45/19
f 33/44/25 32/46/25 35/47/25
f 32/46/21 37/48/21 35/47/21
f 35/47/23 30/52/23 33/51/23
f 32/46/24 26/54/24 29/49/24
f 34/43/19 30/44/19 33/45/19
f 30/44/26 41/46/26 37/47/26
f 41/46/21 35/48/21 37/47/21
f 36/49/25 33/50/25 35/48/25
f 38/53/27 36/49/27 41/46/27
f 38/43/19 39/44/19 30/45/19
f 39/44/22 42/46/22 27/47/22
f 42/46/21 37/48/21 27/47/21
f 42/46/27 38/54/27 41/49/27
f 25/43/19 26/55/19 30/44/19
f 30/44/20 26/55/20 29/46/20
f 29/46/21 28/49/21 27/48/21
f 28/49/22 25/56/22 39/50/22
f 30/51/23 37/47/23 27/48/23
f 26/53/24 25/54/24 28/49/24
f 26/43/19 31/55/19 33/44/19
f 33/44/25 31/55/25 32/46/25
f 32/46/21 29/49/21 37/48/21
f 35/47/23 37/48/23 30/52/23
f 32/46/24 31/53/24 26/54/24
f 34/43/19 38/55/19 30/44/19
f 30/44/26 38/55/26 41/46/26
f 41/46/21 36/49/21 35/48/21
f 36/49/25 34/56/25 33/50/25
f 38/53/27 34/54/27 36/49/27
f 38/43/19 40/55/19 39/44/19
f 39/44/22 40/55/22 42/46/22
f 42/46/21 41/49/21 37/48/21
f 42/46/27 40/53/27 38/54/27
o Cube.005
v -0.080000 0.640000 0.080000 0.0561 0.1990 0.6552
v -0.080000 0.640000 -0.000000 0.0561 0.1990 0.6552
v 0.000000 0.960000 0.012000 0.0561 0.1990 0.6552
v -0.012000 0.960000 0.012000 0.0561 0.1990 0.6552
v -0.012000 0.960000 -0.000000 0.0561 0.1990 0.6552
v 0.000000 0.640000 -0.000000 0.0561 0.1990 0.6552
v -0.080000 0.640000 -0.080000 0.0561 0.1990 0.6552
v -0.012000 0.960000 -0.012000 0.0561 0.1990 0.6552
v 0.000000 0.640000 -0.080000 0.0561 0.1990 0.6552
v 0.080000 0.640000 -0.080000 0.0561 0.1990 0.6552
v 0.000000 0.960000 -0.012000 0.0561 0.1990 0.6552
v 0.012000 0.960000 -0.012000 0.0561 0.1990 0.6552
v 0.000000 0.960000 -0.000000 0.0561 0.1990 0.6552
v 0.080000 0.640000 -0.000000 0.0561 0.1990 0.6552
v 0.000000 0.640000 0.080000 0.0561 0.1990 0.6552
v 0.080000 0.640000 0.080000 0.0561 0.1990 0.6552
v 0.012000 0.960000 -0.000000 0.0561 0.1990 0.6552
v 0.012000 0.960000 0.012000 0.0561 0.1990 0.6552
vn -0.0000 -1.0000 -0.0000
vn -0.0000 -0.0000 -1.0000
vn -0.0000 1.0000 -0.0000
vn -0.0000 0.2079 0.9782
vn 1.0000 -0.0000 -0.0000
vn -0.9782 0.2079 -0.0000
vn -0.0000 0.2079 -0.9782
vn -0.0000 -0.0000 1.0000
vn 0.9782 0.2079 -0.0000
vt 0.625000 0.000000
vt 0.375000 0.250000
vt 0.375000 0.000000
vt 0.625000 0.500000
vt 0.375000 0.500000
vt 0.375000 0.750000
vt 0.625000 0.750000
vt 0.375000 1.000000
vt 0.125000 0.500000
vt 0.125000 0.750000
vt 0.875000 0.500000
vt 0.875000 0.750000
vt 0.625000 0.250000
vt 0.625000 1.000000
s 1
f 43/57/28 48/58/28 57/59/28
f 48/58/29 47/60/29 55/61/29
f 47/60/30 45/62/30 55/61/30
f 46/63/31 57/64/31 45/62/31
f 48/65/32 45/62/32 57/66/32
f 44/67/33 46/63/33 47/60/33
f 44/57/28 51/58/28 48/59/28
f 51/58/34 50/60/34 53/61/34
f 50/60/30 55/62/30 53/61/30
f 53/61/32 48/66/32 51/65/32
f 50/60/33 44/68/33 47/63/33
f 52/57/28 48/58/28 51/59/28
f 48/58/35 59/60/35 55/61/35
f 59/60/30 53/62/30 55/61/30
f 54/63/34 51/64/34 53/62/34
f 56/67/36 54/63/36 59/60/36
f 56/57/28 57/58/28 48/59/28
f 57/58/31 60/60/31 45/61/31
f 60/60/30 55/62/30 45/61/30
f 60/60/36 56/68/36 59/63/36
f 43/57/28 44/69/28 48/58/28
f 48/58/29 44/69/29 47/60/29
f 47/60/30 46/63/30 45/62/30
f 46/63/31 43/70/31 57/64/31
f 48/65/32 55/61/32 45/62/32
f 44/67/33 43/68/33 46/63/33
f 44/57/28 49/69/28 51/58/28
f 51/58/34 49/69/34 50/60/34
f 50/60/30 47/63/30 55/62/30
f 53/61/32 55/62/32 48/66/32
f 50/60/33 49/67/33 44/68/33
f 52/57/28 56/69/28 48/58/28
f 48/58/35 56/69/35 59/60/35
f 59/60/30 54/63/30 53/62/30
f 54/63/34 52/70/34 51/64/34
f 56/67/36 52/68/36 54/63/36
f 56/57/28 58/69/28 57/58/28
f 57/58/31 58/69/31 60/60/31
f 60/60/30 59/63/30 55/62/30
f 60/60/36 58/67/36 56/68/36
o Cube.006
v 0.080000 -0.080000 -0.640000 0.0756 0.6073 0.0873
v 0.080000 -0.000000 -0.640000 0.0756 0.6073 0.0873
v 0.000000 -0.012000 -0.960000 0.0756 0.6073 0.0873
v 0.012000 -0.012000 -0.960000 0.0756 0.6073 0.0873
v 0.012000 -0.000000 -0.960000 0.0756 0.6073 0.0873
v 0.000000 -0.000000 -0.640000 0.0756 0.6073 0.0873
v 0.080000 0.080000 -0.640000 0.0756 0.6073 0.0873
v 0.012000 0.012000 -0.960000 0.0756 0.6073 0.0873
v 0.000000 0.080000 -0.640000 0.0756 0.6073 0.0873
v -0.080000 0.080000 -0.640000 0.0756 0.6073 0.0873
v 0.000000 0.012000 -0.960000 0.0756 0.6073 0.0873
v -0.012000 0.012000 -0.960000 0.0756 0.6073 0.0873
v 0.000000 -0.000000 -0.960000 0.0756 0.6073 0.0873
v -0.080000 -0.000000 -0.640000 0.0756 0.6073 0.0873
v 0.000000 -0.080000 -0.640000 0.0756 0.6073 0.0873
v -0.080000 -0.080000 -0.640000 0.0756 0.6073 0.0873
v -0.012000 -0.000000 -0.960000 0.0756 0.6073 0.0873
v -0.012000 -0.012000 -0.960000 0.0756 0.6073 0.0873
vn -0.0000 -0.0000 1.0000
vn -0.0000 1.0000 -0.0000
vn -0.0000 -0.0000 -1.0000
vn -0.0000 -0.9782 -0.2079
vn -1.0000 -0.0000 -0.0000
vn 0.9782 -0.0000 -0.2079
vn -0.0000 0.9782 -0.2079
vn -0.0000 -1.0000 -0.0000
vn -0.9782 -0.0000 -0.2079
vt 0.625000 0.000000
vt 0.375000 0.250000
vt 0.375000 0.000000
vt 0.625000 0.500000
vt 0.375000 0.500000
vt 0.375000 0.750000
vt 0.625000 0.750000
vt 0.375000 1.000000
vt 0.125000 0.500000
vt 0.125000 0.750000
vt 0.875000 0.500000
vt 0.875000 0.750000
vt 0.625000 0.250000
vt 0.625000 1.000000
s 1
f 61/71/37 66/72/37 75/73/37
f 66/72/38 65/74/38 73/75/38
f 65/74/39 63/76/39 73/75/39
f 64/77/40 75/78/40 63/76/40
f 66/79/41 63/76/41 75/80/41
f 62/81/42 64/77/42 65/74/42
f 62/71/37 69/72/37 66/73/37
f 69/72/43 68/74/43 71/75/43
f 68/74/39 73/76/39 71/75/39
f 71/75/41 66/80/41 69/79/41
f 68/74/42 62/82/42 65/77/42
f 70/71/37 66/72/37 69/73/37
f 66/72/44 77/74/44 73/75/44
f 77/74/39 71/76/39 73/75/39
f 72/77/43 69/78/43 71/76/43
f 74/81/45 72/77/45 77/74/45
f 74/71/37 75/72/37 66/73/37
f 75/72/40 78/74/40 63/75/40
f 78/74/39 73/76/39 63/75/39
f 78/74/45 74/82/45 77/77/45
f 61/71/37 62/83/37 66/72/37
f 66/72/38 62/83/38 65/74/38
f 65/74/39 64/77/39 63/76/39
f 64/77/40 61/84/40 75/78/40
f 66/79/41 73/75/41 63/76/41
f 62/81/42 61/82/42 64/77/42
f 62/71/37 67/83/37 69/72/37
f 69/72/43 67/83/43 68/74/43
f 68/74/39 65/77/39 73/76/39
f 71/75/41 73/76/41 66/80/41
f 68/74/42 67/81/42 62/82/42
f 70/71/37 74/83/37 66/72/37
f 66/72/44 74/83/44 77/74/44
f 77/74/39 72/77/39 71/76/39
f 72/77/43 70/84/43 69/78/43
f 74/81/45 70/82/45 72/77/45
f 74/71/37 76/83/37 75/72/37
f 75/72/40 76/83/40 78/74/40
f 78/74/39 77/77/39 73/76/39
f 78/74/45 76/81/45 74/82/45
