# Blender 4.5.2 LTS
# www.blender.org
o Cube
v 1.000000 1.000000 -1.000000
v 1.000000 -1.000000 -1.000000
v 1.000000 1.000000 1.000000
v 1.000000 -1.000000 1.000000
v -1.000000 1.000000 -1.000000
v -1.000000 -1.000000 -1.000000
v -1.000000 1.000000 1.000000
v -1.000000 -1.000000 1.000000
vn 0.5773 0.5774 -0.5774
vn -0.5773 0.5774 0.5774
vn 0.5774 0.5773 0.5773
vn 0.5773 -0.5774 0.5774
vn -0.5774 -0.5773 0.5773
vn -0.5774 0.5773 -0.5773
vn -0.5773 -0.5774 -0.5774
vn 0.5774 -0.5773 -0.5773
vt -1.001142 0.002752
vt 0.000437 1.004331
vt -1.001142 1.004331
vt 1.002017 0.002752
vt 0.000438 1.004331
vt 0.000438 0.002752
vt 0.000438 -0.998827
vt -1.001142 0.002752
vt -1.001142 -0.998827
vt 0.000438 -0.998827
vt 1.002017 0.002752
vt 0.000438 0.002752
vt 2.003596 0.002752
vt 1.002016 1.004331
vt 2.003596 -0.998827
vt 1.002017 0.002752
vt 1.002017 -0.998827
vt 0.000437 0.002752
vt 0.000437 0.002752
vt 2.003596 1.004331
vt 2.003596 0.002752
s 1
f 1/1/1 7/2/2 3/3/3
f 4/4/4 7/5/2 8/6/5
f 8/7/5 5/8/6 6/9/7
f 6/10/7 4/11/4 8/12/5
f 2/13/8 3/14/3 4/4/4
f 6/15/7 1/16/1 2/17/8
f 1/1/1 5/18/6 7/2/2
f 4/4/4 3/14/3 7/5/2
f 8/7/5 7/19/2 5/8/6
f 6/10/7 2/17/8 4/11/4
f 2/13/8 1/20/1 3/14/3
f 6/15/7 5/21/6 1/16/1
