# Blender 4.5.2 LTS
# www.blender.org
o Ramiel_v2
v 0.000000 0.000000 -0.996596 0.1517 0.2614 1.0000
v 0.000000 -0.000000 0.996597 0.1517 0.2614 1.0000
v -0.000000 -0.960000 -0.000000 0.1517 0.2614 1.0000
v 0.996597 -0.000000 0.000000 0.1517 0.2614 1.0000
v 0.000000 0.960000 0.000000 0.1517 0.2614 1.0000
v -0.996597 0.000000 0.000000 0.1517 0.2614 1.0000
vn 0.5700 0.5917 0.5700
vn -0.5700 0.5917 0.5700
vn -0.5700 -0.5917 0.5700
vn -0.5700 -0.5917 -0.5700
vn -0.5700 0.5917 -0.5700
vn 0.5700 -0.5917 -0.5700
vn 0.5700 0.5917 -0.5700
vn 0.5700 -0.5917 0.5700
vt 0.867031 0.500000
vt 0.500000 1.000000
vt 0.132969 0.500000
vt 0.867031 0.500000
vt 0.500000 0.000000
vt 0.500000 0.000000
vt 0.132969 0.500000
vt 0.867031 0.500000
vt 0.867031 0.500000
vt 0.132969 0.500000
s 0
f 4/1/1 5/2/1 2/3/1
f 5/2/2 6/4/2 2/3/2
f 3/5/3 2/3/3 6/4/3
f 3/6/4 6/7/4 1/8/4
f 5/2/5 1/8/5 6/7/5
f 1/9/6 4/10/6 3/5/6
f 4/10/7 1/9/7 5/2/7
f 3/6/8 4/1/8 2/3/8
